<?xml version="1.0" encoding="UTF-8" standalone="no"?>
<!DOCTYPE svg PUBLIC "-//W3C//DTD SVG 1.1//EN"
 "http://www.w3.org/Graphics/SVG/1.1/DTD/svg11.dtd">
<!-- Generated by graphviz version 2.26.3 (20100126.1600)
 -->
<!-- Title: controllers_diagram Pages: 1 -->
<svg width="1469pt" height="1233pt"
 viewBox="0.00 0.00 1469.00 1232.54" xmlns="http://www.w3.org/2000/svg" xmlns:xlink="http://www.w3.org/1999/xlink">
<g id="graph1" class="graph" transform="scale(1 1) rotate(0) translate(4 1228.54)">
<title>controllers_diagram</title>
<polygon fill="white" stroke="white" points="-4,5 -4,-1228.54 1466,-1228.54 1466,5 -4,5"/>
<!-- _diagram_info -->
<g id="node1" class="node"><title>_diagram_info</title>
<text text-anchor="start" x="1218" y="-543.3" font-family="Times Roman,serif" font-size="13.00">Controllers diagram</text>
<text text-anchor="start" x="1218" y="-526.3" font-family="Times Roman,serif" font-size="13.00">Date: Sep 28 2012 &#45; 11:58</text>
<text text-anchor="start" x="1218" y="-509.3" font-family="Times Roman,serif" font-size="13.00">Migration version: 20120821153201</text>
<text text-anchor="start" x="1218" y="-492.3" font-family="Times Roman,serif" font-size="13.00">Generated by RailRoady 1.1.0</text>
<text text-anchor="start" x="1218" y="-475.3" font-family="Times Roman,serif" font-size="13.00">http://railroady.prestonlee.com</text>
</g>
<!-- ReliabilityIdsController -->
<g id="node2" class="node"><title>ReliabilityIdsController</title>
<polyline fill="none" stroke="black" points="60.4352,-609.333 283.435,-609.333 "/>
<path fill="none" stroke="black" d="M283.435,-609.333C289.435,-609.333 295.435,-615.333 295.435,-621.333"/>
<polyline fill="none" stroke="black" points="295.435,-621.333 295.435,-879.333 "/>
<path fill="none" stroke="black" d="M295.435,-879.333C295.435,-885.333 289.435,-891.333 283.435,-891.333"/>
<polyline fill="none" stroke="black" points="283.435,-891.333 60.4352,-891.333 "/>
<path fill="none" stroke="black" d="M60.4352,-891.333C54.4352,-891.333 48.4352,-885.333 48.4352,-879.333"/>
<polyline fill="none" stroke="black" points="48.4352,-879.333 48.4352,-621.333 "/>
<path fill="none" stroke="black" d="M48.4352,-621.333C48.4352,-615.333 54.4352,-609.333 60.4352,-609.333"/>
<text text-anchor="middle" x="171.935" y="-874.733" font-family="Times Roman,serif" font-size="14.00">ReliabilityIdsController</text>
<polyline fill="none" stroke="black" points="48.4352,-865.333 295.435,-865.333 "/>
<text text-anchor="start" x="56.4352" y="-848.733" font-family="Times Roman,serif" font-size="14.00">_one_time_conditions_valid_212?</text>
<text text-anchor="start" x="56.4352" y="-830.733" font-family="Times Roman,serif" font-size="14.00">_one_time_conditions_valid_214?</text>
<text text-anchor="start" x="56.4352" y="-812.733" font-family="Times Roman,serif" font-size="14.00">create</text>
<text text-anchor="start" x="56.4352" y="-794.733" font-family="Times Roman,serif" font-size="14.00">destroy</text>
<text text-anchor="start" x="56.4352" y="-776.733" font-family="Times Roman,serif" font-size="14.00">edit</text>
<text text-anchor="start" x="56.4352" y="-758.733" font-family="Times Roman,serif" font-size="14.00">index</text>
<text text-anchor="start" x="56.4352" y="-740.733" font-family="Times Roman,serif" font-size="14.00">new</text>
<text text-anchor="start" x="56.4352" y="-722.733" font-family="Times Roman,serif" font-size="14.00">show</text>
<text text-anchor="start" x="56.4352" y="-704.733" font-family="Times Roman,serif" font-size="14.00">update</text>
<polyline fill="none" stroke="black" points="48.4352,-695.333 295.435,-695.333 "/>
<polyline fill="none" stroke="black" points="48.4352,-671.333 295.435,-671.333 "/>
<text text-anchor="start" x="56.4352" y="-654.733" font-family="Times Roman,serif" font-size="14.00">_layout</text>
<text text-anchor="start" x="56.4352" y="-636.733" font-family="Times Roman,serif" font-size="14.00">parse_date</text>
<text text-anchor="start" x="56.4352" y="-618.733" font-family="Times Roman,serif" font-size="14.00">post_params</text>
</g>
<!-- ExercisesController -->
<g id="node3" class="node"><title>ExercisesController</title>
<polyline fill="none" stroke="black" points="903.908,-897.443 1126.91,-897.443 "/>
<path fill="none" stroke="black" d="M1126.91,-897.443C1132.91,-897.443 1138.91,-903.443 1138.91,-909.443"/>
<polyline fill="none" stroke="black" points="1138.91,-909.443 1138.91,-1167.44 "/>
<path fill="none" stroke="black" d="M1138.91,-1167.44C1138.91,-1173.44 1132.91,-1179.44 1126.91,-1179.44"/>
<polyline fill="none" stroke="black" points="1126.91,-1179.44 903.908,-1179.44 "/>
<path fill="none" stroke="black" d="M903.908,-1179.44C897.908,-1179.44 891.908,-1173.44 891.908,-1167.44"/>
<polyline fill="none" stroke="black" points="891.908,-1167.44 891.908,-909.443 "/>
<path fill="none" stroke="black" d="M891.908,-909.443C891.908,-903.443 897.908,-897.443 903.908,-897.443"/>
<text text-anchor="middle" x="1015.41" y="-1162.84" font-family="Times Roman,serif" font-size="14.00">ExercisesController</text>
<polyline fill="none" stroke="black" points="891.908,-1153.44 1138.91,-1153.44 "/>
<text text-anchor="start" x="899.908" y="-1136.84" font-family="Times Roman,serif" font-size="14.00">_one_time_conditions_valid_290?</text>
<text text-anchor="start" x="899.908" y="-1118.84" font-family="Times Roman,serif" font-size="14.00">_one_time_conditions_valid_292?</text>
<text text-anchor="start" x="899.908" y="-1100.84" font-family="Times Roman,serif" font-size="14.00">create</text>
<text text-anchor="start" x="899.908" y="-1082.84" font-family="Times Roman,serif" font-size="14.00">destroy</text>
<text text-anchor="start" x="899.908" y="-1064.84" font-family="Times Roman,serif" font-size="14.00">edit</text>
<text text-anchor="start" x="899.908" y="-1046.84" font-family="Times Roman,serif" font-size="14.00">index</text>
<text text-anchor="start" x="899.908" y="-1028.84" font-family="Times Roman,serif" font-size="14.00">new</text>
<text text-anchor="start" x="899.908" y="-1010.84" font-family="Times Roman,serif" font-size="14.00">show</text>
<text text-anchor="start" x="899.908" y="-992.843" font-family="Times Roman,serif" font-size="14.00">update</text>
<polyline fill="none" stroke="black" points="891.908,-983.443 1138.91,-983.443 "/>
<polyline fill="none" stroke="black" points="891.908,-959.443 1138.91,-959.443 "/>
<text text-anchor="start" x="899.908" y="-942.843" font-family="Times Roman,serif" font-size="14.00">_layout</text>
<text text-anchor="start" x="899.908" y="-924.843" font-family="Times Roman,serif" font-size="14.00">parse_date</text>
<text text-anchor="start" x="899.908" y="-906.843" font-family="Times Roman,serif" font-size="14.00">post_params</text>
</g>
<!-- StudyTypesController -->
<g id="node4" class="node"><title>StudyTypesController</title>
<polyline fill="none" stroke="black" points="333.984,-18.0601 556.984,-18.0601 "/>
<path fill="none" stroke="black" d="M556.984,-18.0601C562.984,-18.0601 568.984,-24.0601 568.984,-30.0601"/>
<polyline fill="none" stroke="black" points="568.984,-30.0601 568.984,-288.06 "/>
<path fill="none" stroke="black" d="M568.984,-288.06C568.984,-294.06 562.984,-300.06 556.984,-300.06"/>
<polyline fill="none" stroke="black" points="556.984,-300.06 333.984,-300.06 "/>
<path fill="none" stroke="black" d="M333.984,-300.06C327.984,-300.06 321.984,-294.06 321.984,-288.06"/>
<polyline fill="none" stroke="black" points="321.984,-288.06 321.984,-30.0601 "/>
<path fill="none" stroke="black" d="M321.984,-30.0601C321.984,-24.0601 327.984,-18.0601 333.984,-18.0601"/>
<text text-anchor="middle" x="445.484" y="-283.46" font-family="Times Roman,serif" font-size="14.00">StudyTypesController</text>
<polyline fill="none" stroke="black" points="321.984,-274.06 568.984,-274.06 "/>
<text text-anchor="start" x="329.984" y="-257.46" font-family="Times Roman,serif" font-size="14.00">_one_time_conditions_valid_314?</text>
<text text-anchor="start" x="329.984" y="-239.46" font-family="Times Roman,serif" font-size="14.00">_one_time_conditions_valid_316?</text>
<text text-anchor="start" x="329.984" y="-221.46" font-family="Times Roman,serif" font-size="14.00">create</text>
<text text-anchor="start" x="329.984" y="-203.46" font-family="Times Roman,serif" font-size="14.00">destroy</text>
<text text-anchor="start" x="329.984" y="-185.46" font-family="Times Roman,serif" font-size="14.00">edit</text>
<text text-anchor="start" x="329.984" y="-167.46" font-family="Times Roman,serif" font-size="14.00">index</text>
<text text-anchor="start" x="329.984" y="-149.46" font-family="Times Roman,serif" font-size="14.00">new</text>
<text text-anchor="start" x="329.984" y="-131.46" font-family="Times Roman,serif" font-size="14.00">show</text>
<text text-anchor="start" x="329.984" y="-113.46" font-family="Times Roman,serif" font-size="14.00">update</text>
<polyline fill="none" stroke="black" points="321.984,-104.06 568.984,-104.06 "/>
<polyline fill="none" stroke="black" points="321.984,-80.0601 568.984,-80.0601 "/>
<text text-anchor="start" x="329.984" y="-63.4601" font-family="Times Roman,serif" font-size="14.00">_layout</text>
<text text-anchor="start" x="329.984" y="-45.4601" font-family="Times Roman,serif" font-size="14.00">parse_date</text>
<text text-anchor="start" x="329.984" y="-27.4601" font-family="Times Roman,serif" font-size="14.00">post_params</text>
</g>
<!-- StudiesController -->
<g id="node5" class="node"><title>StudiesController</title>
<polyline fill="none" stroke="black" points="13,-941.042 236,-941.042 "/>
<path fill="none" stroke="black" d="M236,-941.042C242,-941.042 248,-947.042 248,-953.042"/>
<polyline fill="none" stroke="black" points="248,-953.042 248,-1211.04 "/>
<path fill="none" stroke="black" d="M248,-1211.04C248,-1217.04 242,-1223.04 236,-1223.04"/>
<polyline fill="none" stroke="black" points="236,-1223.04 13,-1223.04 "/>
<path fill="none" stroke="black" d="M13,-1223.04C7,-1223.04 1,-1217.04 1,-1211.04"/>
<polyline fill="none" stroke="black" points="1,-1211.04 1,-953.042 "/>
<path fill="none" stroke="black" d="M1,-953.042C1,-947.042 7,-941.042 13,-941.042"/>
<text text-anchor="middle" x="124.5" y="-1206.44" font-family="Times Roman,serif" font-size="14.00">StudiesController</text>
<polyline fill="none" stroke="black" points="1,-1197.04 248,-1197.04 "/>
<text text-anchor="start" x="9" y="-1180.44" font-family="Times Roman,serif" font-size="14.00">_one_time_conditions_valid_364?</text>
<text text-anchor="start" x="9" y="-1162.44" font-family="Times Roman,serif" font-size="14.00">_one_time_conditions_valid_366?</text>
<text text-anchor="start" x="9" y="-1144.44" font-family="Times Roman,serif" font-size="14.00">create</text>
<text text-anchor="start" x="9" y="-1126.44" font-family="Times Roman,serif" font-size="14.00">destroy</text>
<text text-anchor="start" x="9" y="-1108.44" font-family="Times Roman,serif" font-size="14.00">edit</text>
<text text-anchor="start" x="9" y="-1090.44" font-family="Times Roman,serif" font-size="14.00">index</text>
<text text-anchor="start" x="9" y="-1072.44" font-family="Times Roman,serif" font-size="14.00">new</text>
<text text-anchor="start" x="9" y="-1054.44" font-family="Times Roman,serif" font-size="14.00">show</text>
<text text-anchor="start" x="9" y="-1036.44" font-family="Times Roman,serif" font-size="14.00">update</text>
<polyline fill="none" stroke="black" points="1,-1027.04 248,-1027.04 "/>
<polyline fill="none" stroke="black" points="1,-1003.04 248,-1003.04 "/>
<text text-anchor="start" x="9" y="-986.442" font-family="Times Roman,serif" font-size="14.00">_layout</text>
<text text-anchor="start" x="9" y="-968.442" font-family="Times Roman,serif" font-size="14.00">parse_date</text>
<text text-anchor="start" x="9" y="-950.442" font-family="Times Roman,serif" font-size="14.00">post_params</text>
</g>
<!-- GroupsController -->
<g id="node6" class="node"><title>GroupsController</title>
<polyline fill="none" stroke="black" points="612.369,-867.847 835.369,-867.847 "/>
<path fill="none" stroke="black" d="M835.369,-867.847C841.369,-867.847 847.369,-873.847 847.369,-879.847"/>
<polyline fill="none" stroke="black" points="847.369,-879.847 847.369,-1137.85 "/>
<path fill="none" stroke="black" d="M847.369,-1137.85C847.369,-1143.85 841.369,-1149.85 835.369,-1149.85"/>
<polyline fill="none" stroke="black" points="835.369,-1149.85 612.369,-1149.85 "/>
<path fill="none" stroke="black" d="M612.369,-1149.85C606.369,-1149.85 600.369,-1143.85 600.369,-1137.85"/>
<polyline fill="none" stroke="black" points="600.369,-1137.85 600.369,-879.847 "/>
<path fill="none" stroke="black" d="M600.369,-879.847C600.369,-873.847 606.369,-867.847 612.369,-867.847"/>
<text text-anchor="middle" x="723.869" y="-1133.25" font-family="Times Roman,serif" font-size="14.00">GroupsController</text>
<polyline fill="none" stroke="black" points="600.369,-1123.85 847.369,-1123.85 "/>
<text text-anchor="start" x="608.369" y="-1107.25" font-family="Times Roman,serif" font-size="14.00">_one_time_conditions_valid_444?</text>
<text text-anchor="start" x="608.369" y="-1089.25" font-family="Times Roman,serif" font-size="14.00">_one_time_conditions_valid_446?</text>
<text text-anchor="start" x="608.369" y="-1071.25" font-family="Times Roman,serif" font-size="14.00">create</text>
<text text-anchor="start" x="608.369" y="-1053.25" font-family="Times Roman,serif" font-size="14.00">destroy</text>
<text text-anchor="start" x="608.369" y="-1035.25" font-family="Times Roman,serif" font-size="14.00">edit</text>
<text text-anchor="start" x="608.369" y="-1017.25" font-family="Times Roman,serif" font-size="14.00">index</text>
<text text-anchor="start" x="608.369" y="-999.247" font-family="Times Roman,serif" font-size="14.00">new</text>
<text text-anchor="start" x="608.369" y="-981.247" font-family="Times Roman,serif" font-size="14.00">show</text>
<text text-anchor="start" x="608.369" y="-963.247" font-family="Times Roman,serif" font-size="14.00">update</text>
<polyline fill="none" stroke="black" points="600.369,-953.847 847.369,-953.847 "/>
<polyline fill="none" stroke="black" points="600.369,-929.847 847.369,-929.847 "/>
<text text-anchor="start" x="608.369" y="-913.247" font-family="Times Roman,serif" font-size="14.00">_layout</text>
<text text-anchor="start" x="608.369" y="-895.247" font-family="Times Roman,serif" font-size="14.00">parse_date</text>
<text text-anchor="start" x="608.369" y="-877.247" font-family="Times Roman,serif" font-size="14.00">post_params</text>
</g>
<!-- AssessmentsController -->
<g id="node7" class="node"><title>AssessmentsController</title>
<polyline fill="none" stroke="black" points="334.214,-904.394 557.214,-904.394 "/>
<path fill="none" stroke="black" d="M557.214,-904.394C563.214,-904.394 569.214,-910.394 569.214,-916.394"/>
<polyline fill="none" stroke="black" points="569.214,-916.394 569.214,-1174.39 "/>
<path fill="none" stroke="black" d="M569.214,-1174.39C569.214,-1180.39 563.214,-1186.39 557.214,-1186.39"/>
<polyline fill="none" stroke="black" points="557.214,-1186.39 334.214,-1186.39 "/>
<path fill="none" stroke="black" d="M334.214,-1186.39C328.214,-1186.39 322.214,-1180.39 322.214,-1174.39"/>
<polyline fill="none" stroke="black" points="322.214,-1174.39 322.214,-916.394 "/>
<path fill="none" stroke="black" d="M322.214,-916.394C322.214,-910.394 328.214,-904.394 334.214,-904.394"/>
<text text-anchor="middle" x="445.714" y="-1169.79" font-family="Times Roman,serif" font-size="14.00">AssessmentsController</text>
<polyline fill="none" stroke="black" points="322.214,-1160.39 569.214,-1160.39 "/>
<text text-anchor="start" x="330.214" y="-1143.79" font-family="Times Roman,serif" font-size="14.00">_one_time_conditions_valid_462?</text>
<text text-anchor="start" x="330.214" y="-1125.79" font-family="Times Roman,serif" font-size="14.00">_one_time_conditions_valid_464?</text>
<text text-anchor="start" x="330.214" y="-1107.79" font-family="Times Roman,serif" font-size="14.00">create</text>
<text text-anchor="start" x="330.214" y="-1089.79" font-family="Times Roman,serif" font-size="14.00">destroy</text>
<text text-anchor="start" x="330.214" y="-1071.79" font-family="Times Roman,serif" font-size="14.00">edit</text>
<text text-anchor="start" x="330.214" y="-1053.79" font-family="Times Roman,serif" font-size="14.00">index</text>
<text text-anchor="start" x="330.214" y="-1035.79" font-family="Times Roman,serif" font-size="14.00">new</text>
<text text-anchor="start" x="330.214" y="-1017.79" font-family="Times Roman,serif" font-size="14.00">show</text>
<text text-anchor="start" x="330.214" y="-999.794" font-family="Times Roman,serif" font-size="14.00">update</text>
<polyline fill="none" stroke="black" points="322.214,-990.394 569.214,-990.394 "/>
<polyline fill="none" stroke="black" points="322.214,-966.394 569.214,-966.394 "/>
<text text-anchor="start" x="330.214" y="-949.794" font-family="Times Roman,serif" font-size="14.00">_layout</text>
<text text-anchor="start" x="330.214" y="-931.794" font-family="Times Roman,serif" font-size="14.00">parse_date</text>
<text text-anchor="start" x="330.214" y="-913.794" font-family="Times Roman,serif" font-size="14.00">post_params</text>
</g>
<!-- RulesController -->
<g id="node8" class="node"><title>RulesController</title>
<polyline fill="none" stroke="black" points="56.0332,-307.728 279.033,-307.728 "/>
<path fill="none" stroke="black" d="M279.033,-307.728C285.033,-307.728 291.033,-313.728 291.033,-319.728"/>
<polyline fill="none" stroke="black" points="291.033,-319.728 291.033,-577.728 "/>
<path fill="none" stroke="black" d="M291.033,-577.728C291.033,-583.728 285.033,-589.728 279.033,-589.728"/>
<polyline fill="none" stroke="black" points="279.033,-589.728 56.0332,-589.728 "/>
<path fill="none" stroke="black" d="M56.0332,-589.728C50.0332,-589.728 44.0332,-583.728 44.0332,-577.728"/>
<polyline fill="none" stroke="black" points="44.0332,-577.728 44.0332,-319.728 "/>
<path fill="none" stroke="black" d="M44.0332,-319.728C44.0332,-313.728 50.0332,-307.728 56.0332,-307.728"/>
<text text-anchor="middle" x="167.533" y="-573.128" font-family="Times Roman,serif" font-size="14.00">RulesController</text>
<polyline fill="none" stroke="black" points="44.0332,-563.728 291.033,-563.728 "/>
<text text-anchor="start" x="52.0332" y="-547.128" font-family="Times Roman,serif" font-size="14.00">_one_time_conditions_valid_480?</text>
<text text-anchor="start" x="52.0332" y="-529.128" font-family="Times Roman,serif" font-size="14.00">_one_time_conditions_valid_482?</text>
<text text-anchor="start" x="52.0332" y="-511.128" font-family="Times Roman,serif" font-size="14.00">create</text>
<text text-anchor="start" x="52.0332" y="-493.128" font-family="Times Roman,serif" font-size="14.00">destroy</text>
<text text-anchor="start" x="52.0332" y="-475.128" font-family="Times Roman,serif" font-size="14.00">edit</text>
<text text-anchor="start" x="52.0332" y="-457.128" font-family="Times Roman,serif" font-size="14.00">index</text>
<text text-anchor="start" x="52.0332" y="-439.128" font-family="Times Roman,serif" font-size="14.00">new</text>
<text text-anchor="start" x="52.0332" y="-421.128" font-family="Times Roman,serif" font-size="14.00">show</text>
<text text-anchor="start" x="52.0332" y="-403.128" font-family="Times Roman,serif" font-size="14.00">update</text>
<polyline fill="none" stroke="black" points="44.0332,-393.728 291.033,-393.728 "/>
<polyline fill="none" stroke="black" points="44.0332,-369.728 291.033,-369.728 "/>
<text text-anchor="start" x="52.0332" y="-353.128" font-family="Times Roman,serif" font-size="14.00">_layout</text>
<text text-anchor="start" x="52.0332" y="-335.128" font-family="Times Roman,serif" font-size="14.00">parse_date</text>
<text text-anchor="start" x="52.0332" y="-317.128" font-family="Times Roman,serif" font-size="14.00">post_params</text>
</g>
<!-- ResultsController -->
<g id="node9" class="node"><title>ResultsController</title>
<polyline fill="none" stroke="black" points="855.764,-460.216 1078.76,-460.216 "/>
<path fill="none" stroke="black" d="M1078.76,-460.216C1084.76,-460.216 1090.76,-466.216 1090.76,-472.216"/>
<polyline fill="none" stroke="black" points="1090.76,-472.216 1090.76,-730.216 "/>
<path fill="none" stroke="black" d="M1090.76,-730.216C1090.76,-736.216 1084.76,-742.216 1078.76,-742.216"/>
<polyline fill="none" stroke="black" points="1078.76,-742.216 855.764,-742.216 "/>
<path fill="none" stroke="black" d="M855.764,-742.216C849.764,-742.216 843.764,-736.216 843.764,-730.216"/>
<polyline fill="none" stroke="black" points="843.764,-730.216 843.764,-472.216 "/>
<path fill="none" stroke="black" d="M843.764,-472.216C843.764,-466.216 849.764,-460.216 855.764,-460.216"/>
<text text-anchor="middle" x="967.264" y="-725.616" font-family="Times Roman,serif" font-size="14.00">ResultsController</text>
<polyline fill="none" stroke="black" points="843.764,-716.216 1090.76,-716.216 "/>
<text text-anchor="start" x="851.764" y="-699.616" font-family="Times Roman,serif" font-size="14.00">_one_time_conditions_valid_502?</text>
<text text-anchor="start" x="851.764" y="-681.616" font-family="Times Roman,serif" font-size="14.00">_one_time_conditions_valid_504?</text>
<text text-anchor="start" x="851.764" y="-663.616" font-family="Times Roman,serif" font-size="14.00">create</text>
<text text-anchor="start" x="851.764" y="-645.616" font-family="Times Roman,serif" font-size="14.00">destroy</text>
<text text-anchor="start" x="851.764" y="-627.616" font-family="Times Roman,serif" font-size="14.00">edit</text>
<text text-anchor="start" x="851.764" y="-609.616" font-family="Times Roman,serif" font-size="14.00">index</text>
<text text-anchor="start" x="851.764" y="-591.616" font-family="Times Roman,serif" font-size="14.00">new</text>
<text text-anchor="start" x="851.764" y="-573.616" font-family="Times Roman,serif" font-size="14.00">show</text>
<text text-anchor="start" x="851.764" y="-555.616" font-family="Times Roman,serif" font-size="14.00">update</text>
<polyline fill="none" stroke="black" points="843.764,-546.216 1090.76,-546.216 "/>
<polyline fill="none" stroke="black" points="843.764,-522.216 1090.76,-522.216 "/>
<text text-anchor="start" x="851.764" y="-505.616" font-family="Times Roman,serif" font-size="14.00">_layout</text>
<text text-anchor="start" x="851.764" y="-487.616" font-family="Times Roman,serif" font-size="14.00">parse_date</text>
<text text-anchor="start" x="851.764" y="-469.616" font-family="Times Roman,serif" font-size="14.00">post_params</text>
</g>
<!-- UsersController -->
<g id="node10" class="node"><title>UsersController</title>
<polyline fill="none" stroke="black" points="14.5671,-1.5 237.567,-1.5 "/>
<path fill="none" stroke="black" d="M237.567,-1.5C243.567,-1.5 249.567,-7.5 249.567,-13.5"/>
<polyline fill="none" stroke="black" points="249.567,-13.5 249.567,-217.5 "/>
<path fill="none" stroke="black" d="M249.567,-217.5C249.567,-223.5 243.567,-229.5 237.567,-229.5"/>
<polyline fill="none" stroke="black" points="237.567,-229.5 14.5671,-229.5 "/>
<path fill="none" stroke="black" d="M14.5671,-229.5C8.56714,-229.5 2.56714,-223.5 2.56714,-217.5"/>
<polyline fill="none" stroke="black" points="2.56714,-217.5 2.56714,-13.5 "/>
<path fill="none" stroke="black" d="M2.56714,-13.5C2.56714,-7.5 8.56714,-1.5 14.5671,-1.5"/>
<text text-anchor="middle" x="126.067" y="-212.9" font-family="Times Roman,serif" font-size="14.00">UsersController</text>
<polyline fill="none" stroke="black" points="2.56714,-203.5 249.567,-203.5 "/>
<text text-anchor="start" x="10.5671" y="-186.9" font-family="Times Roman,serif" font-size="14.00">_one_time_conditions_valid_508?</text>
<text text-anchor="start" x="10.5671" y="-168.9" font-family="Times Roman,serif" font-size="14.00">_one_time_conditions_valid_510?</text>
<text text-anchor="start" x="10.5671" y="-150.9" font-family="Times Roman,serif" font-size="14.00">destroy</text>
<text text-anchor="start" x="10.5671" y="-132.9" font-family="Times Roman,serif" font-size="14.00">edit</text>
<text text-anchor="start" x="10.5671" y="-114.9" font-family="Times Roman,serif" font-size="14.00">index</text>
<text text-anchor="start" x="10.5671" y="-96.9" font-family="Times Roman,serif" font-size="14.00">show</text>
<text text-anchor="start" x="10.5671" y="-78.9" font-family="Times Roman,serif" font-size="14.00">update</text>
<polyline fill="none" stroke="black" points="2.56714,-69.5 249.567,-69.5 "/>
<polyline fill="none" stroke="black" points="2.56714,-45.5 249.567,-45.5 "/>
<text text-anchor="start" x="10.5671" y="-28.9" font-family="Times Roman,serif" font-size="14.00">_layout</text>
<text text-anchor="start" x="10.5671" y="-10.9" font-family="Times Roman,serif" font-size="14.00">post_params</text>
</g>
<!-- AssessmentResultsController -->
<g id="node11" class="node"><title>AssessmentResultsController</title>
<polyline fill="none" stroke="black" points="615.128,-39.5219 838.128,-39.5219 "/>
<path fill="none" stroke="black" d="M838.128,-39.5219C844.128,-39.5219 850.128,-45.5219 850.128,-51.5219"/>
<polyline fill="none" stroke="black" points="850.128,-51.5219 850.128,-309.522 "/>
<path fill="none" stroke="black" d="M850.128,-309.522C850.128,-315.522 844.128,-321.522 838.128,-321.522"/>
<polyline fill="none" stroke="black" points="838.128,-321.522 615.128,-321.522 "/>
<path fill="none" stroke="black" d="M615.128,-321.522C609.128,-321.522 603.128,-315.522 603.128,-309.522"/>
<polyline fill="none" stroke="black" points="603.128,-309.522 603.128,-51.5219 "/>
<path fill="none" stroke="black" d="M603.128,-51.5219C603.128,-45.5219 609.128,-39.5219 615.128,-39.5219"/>
<text text-anchor="middle" x="726.628" y="-304.922" font-family="Times Roman,serif" font-size="14.00">AssessmentResultsController</text>
<polyline fill="none" stroke="black" points="603.128,-295.522 850.128,-295.522 "/>
<text text-anchor="start" x="611.128" y="-278.922" font-family="Times Roman,serif" font-size="14.00">_one_time_conditions_valid_516?</text>
<text text-anchor="start" x="611.128" y="-260.922" font-family="Times Roman,serif" font-size="14.00">_one_time_conditions_valid_518?</text>
<text text-anchor="start" x="611.128" y="-242.922" font-family="Times Roman,serif" font-size="14.00">create</text>
<text text-anchor="start" x="611.128" y="-224.922" font-family="Times Roman,serif" font-size="14.00">destroy</text>
<text text-anchor="start" x="611.128" y="-206.922" font-family="Times Roman,serif" font-size="14.00">edit</text>
<text text-anchor="start" x="611.128" y="-188.922" font-family="Times Roman,serif" font-size="14.00">index</text>
<text text-anchor="start" x="611.128" y="-170.922" font-family="Times Roman,serif" font-size="14.00">new</text>
<text text-anchor="start" x="611.128" y="-152.922" font-family="Times Roman,serif" font-size="14.00">show</text>
<text text-anchor="start" x="611.128" y="-134.922" font-family="Times Roman,serif" font-size="14.00">update</text>
<polyline fill="none" stroke="black" points="603.128,-125.522 850.128,-125.522 "/>
<polyline fill="none" stroke="black" points="603.128,-101.522 850.128,-101.522 "/>
<text text-anchor="start" x="611.128" y="-84.9219" font-family="Times Roman,serif" font-size="14.00">_layout</text>
<text text-anchor="start" x="611.128" y="-66.9219" font-family="Times Roman,serif" font-size="14.00">parse_date</text>
<text text-anchor="start" x="611.128" y="-48.9219" font-family="Times Roman,serif" font-size="14.00">post_params</text>
</g>
<!-- ProjectsController -->
<g id="node12" class="node"><title>ProjectsController</title>
<polyline fill="none" stroke="black" points="906.491,-33.8734 1129.49,-33.8734 "/>
<path fill="none" stroke="black" d="M1129.49,-33.8734C1135.49,-33.8734 1141.49,-39.8734 1141.49,-45.8734"/>
<polyline fill="none" stroke="black" points="1141.49,-45.8734 1141.49,-285.873 "/>
<path fill="none" stroke="black" d="M1141.49,-285.873C1141.49,-291.873 1135.49,-297.873 1129.49,-297.873"/>
<polyline fill="none" stroke="black" points="1129.49,-297.873 906.491,-297.873 "/>
<path fill="none" stroke="black" d="M906.491,-297.873C900.491,-297.873 894.491,-291.873 894.491,-285.873"/>
<polyline fill="none" stroke="black" points="894.491,-285.873 894.491,-45.8734 "/>
<path fill="none" stroke="black" d="M894.491,-45.8734C894.491,-39.8734 900.491,-33.8734 906.491,-33.8734"/>
<text text-anchor="middle" x="1017.99" y="-281.273" font-family="Times Roman,serif" font-size="14.00">ProjectsController</text>
<polyline fill="none" stroke="black" points="894.491,-271.873 1141.49,-271.873 "/>
<text text-anchor="start" x="902.491" y="-255.273" font-family="Times Roman,serif" font-size="14.00">_one_time_conditions_valid_548?</text>
<text text-anchor="start" x="902.491" y="-237.273" font-family="Times Roman,serif" font-size="14.00">_one_time_conditions_valid_550?</text>
<text text-anchor="start" x="902.491" y="-219.273" font-family="Times Roman,serif" font-size="14.00">create</text>
<text text-anchor="start" x="902.491" y="-201.273" font-family="Times Roman,serif" font-size="14.00">destroy</text>
<text text-anchor="start" x="902.491" y="-183.273" font-family="Times Roman,serif" font-size="14.00">edit</text>
<text text-anchor="start" x="902.491" y="-165.273" font-family="Times Roman,serif" font-size="14.00">index</text>
<text text-anchor="start" x="902.491" y="-147.273" font-family="Times Roman,serif" font-size="14.00">new</text>
<text text-anchor="start" x="902.491" y="-129.273" font-family="Times Roman,serif" font-size="14.00">show</text>
<text text-anchor="start" x="902.491" y="-111.273" font-family="Times Roman,serif" font-size="14.00">update</text>
<polyline fill="none" stroke="black" points="894.491,-101.873 1141.49,-101.873 "/>
<polyline fill="none" stroke="black" points="894.491,-77.8734 1141.49,-77.8734 "/>
<text text-anchor="start" x="902.491" y="-61.2734" font-family="Times Roman,serif" font-size="14.00">_layout</text>
<text text-anchor="start" x="902.491" y="-43.2734" font-family="Times Roman,serif" font-size="14.00">post_params</text>
</g>
<!-- ApplicationController -->
<g id="node13" class="node"><title>ApplicationController</title>
<polyline fill="none" stroke="black" points="455.935,-517.667 678.935,-517.667 "/>
<path fill="none" stroke="black" d="M678.935,-517.667C684.935,-517.667 690.935,-523.667 690.935,-529.667"/>
<polyline fill="none" stroke="black" points="690.935,-529.667 690.935,-663.667 "/>
<path fill="none" stroke="black" d="M690.935,-663.667C690.935,-669.667 684.935,-675.667 678.935,-675.667"/>
<polyline fill="none" stroke="black" points="678.935,-675.667 455.935,-675.667 "/>
<path fill="none" stroke="black" d="M455.935,-675.667C449.935,-675.667 443.935,-669.667 443.935,-663.667"/>
<polyline fill="none" stroke="black" points="443.935,-663.667 443.935,-529.667 "/>
<path fill="none" stroke="black" d="M443.935,-529.667C443.935,-523.667 449.935,-517.667 455.935,-517.667"/>
<text text-anchor="middle" x="567.435" y="-659.067" font-family="Times Roman,serif" font-size="14.00">ApplicationController</text>
<polyline fill="none" stroke="black" points="443.935,-649.667 690.935,-649.667 "/>
<text text-anchor="start" x="451.935" y="-633.067" font-family="Times Roman,serif" font-size="14.00">_one_time_conditions_valid_190?</text>
<text text-anchor="start" x="451.935" y="-615.067" font-family="Times Roman,serif" font-size="14.00">about</text>
<text text-anchor="start" x="451.935" y="-597.067" font-family="Times Roman,serif" font-size="14.00">parse_date</text>
<text text-anchor="start" x="451.935" y="-579.067" font-family="Times Roman,serif" font-size="14.00">parse_search_terms</text>
<polyline fill="none" stroke="black" points="443.935,-569.667 690.935,-569.667 "/>
<text text-anchor="start" x="451.935" y="-553.067" font-family="Times Roman,serif" font-size="14.00">check_system_admin</text>
<polyline fill="none" stroke="black" points="443.935,-543.667 690.935,-543.667 "/>
<text text-anchor="start" x="451.935" y="-527.067" font-family="Times Roman,serif" font-size="14.00">_layout</text>
</g>
<!-- ApplicationController&#45;&gt;ReliabilityIdsController -->
<g id="edge2" class="edge"><title>ApplicationController&#45;&gt;ReliabilityIdsController</title>
<path fill="none" stroke="black" d="M443.924,-644.656C396.667,-663.016 342.794,-683.948 295.53,-702.312"/>
</g>
<!-- ApplicationController&#45;&gt;ExercisesController -->
<g id="edge4" class="edge"><title>ApplicationController&#45;&gt;ExercisesController</title>
<path fill="none" stroke="black" d="M653.449,-675.814C710.168,-728.555 785.688,-799.834 850.569,-864.647 863.956,-878.02 877.791,-892.129 891.493,-906.29"/>
</g>
<!-- ApplicationController&#45;&gt;StudyTypesController -->
<g id="edge6" class="edge"><title>ApplicationController&#45;&gt;StudyTypesController</title>
<path fill="none" stroke="black" d="M545.351,-517.42C528.5,-456.953 504.849,-372.081 484.792,-300.111"/>
</g>
<!-- ApplicationController&#45;&gt;StudiesController -->
<g id="edge8" class="edge"><title>ApplicationController&#45;&gt;StudiesController</title>
<path fill="none" stroke="black" d="M496.432,-675.965C442.417,-736.14 366.13,-820.805 298.635,-894.533 282.361,-912.31 265.164,-930.973 248.167,-949.349"/>
</g>
<!-- ApplicationController&#45;&gt;GroupsController -->
<g id="edge10" class="edge"><title>ApplicationController&#45;&gt;GroupsController</title>
<path fill="none" stroke="black" d="M597.597,-676.139C618.151,-730.295 645.933,-803.496 670.205,-867.449"/>
</g>
<!-- ApplicationController&#45;&gt;AssessmentsController -->
<g id="edge12" class="edge"><title>ApplicationController&#45;&gt;AssessmentsController</title>
<path fill="none" stroke="black" d="M545.954,-675.857C528.858,-738.884 504.495,-828.695 484.07,-903.995"/>
</g>
<!-- ApplicationController&#45;&gt;RulesController -->
<g id="edge14" class="edge"><title>ApplicationController&#45;&gt;RulesController</title>
<path fill="none" stroke="black" d="M443.916,-550.972C395.389,-533.02 339.791,-512.453 291.246,-494.494"/>
</g>
<!-- ApplicationController&#45;&gt;ResultsController -->
<g id="edge16" class="edge"><title>ApplicationController&#45;&gt;ResultsController</title>
<path fill="none" stroke="black" d="M691.205,-598.075C739.712,-598.627 795.251,-599.259 843.734,-599.811"/>
</g>
<!-- ApplicationController&#45;&gt;UsersController -->
<g id="edge18" class="edge"><title>ApplicationController&#45;&gt;UsersController</title>
<path fill="none" stroke="black" d="M494.8,-517.482C422.979,-439.185 312.332,-318.56 230.973,-229.865"/>
</g>
<!-- ApplicationController&#45;&gt;AssessmentResultsController -->
<g id="edge20" class="edge"><title>ApplicationController&#45;&gt;AssessmentResultsController</title>
<path fill="none" stroke="black" d="M597.753,-517.414C618.863,-462.231 647.596,-387.12 672.575,-321.822"/>
</g>
<!-- ApplicationController&#45;&gt;ProjectsController -->
<g id="edge22" class="edge"><title>ApplicationController&#45;&gt;ProjectsController</title>
<path fill="none" stroke="black" d="M651.086,-517.391C708.163,-463.228 785.433,-389.76 853.328,-324.722 866.666,-311.945 880.592,-298.569 894.451,-285.232"/>
</g>
</g>
</svg>
