<?xml version="1.0" encoding="UTF-8" standalone="no"?>
<!DOCTYPE svg PUBLIC "-//W3C//DTD SVG 1.1//EN"
 "http://www.w3.org/Graphics/SVG/1.1/DTD/svg11.dtd">
<!-- Generated by graphviz version 2.26.3 (20100126.1600)
 -->
<!-- Title: models_diagram Pages: 1 -->
<svg width="900pt" height="1232pt"
 viewBox="0.00 0.00 900.00 1232.00" xmlns="http://www.w3.org/2000/svg" xmlns:xlink="http://www.w3.org/1999/xlink">
<g id="graph1" class="graph" transform="scale(1 1) rotate(0) translate(4 1228)">
<title>models_diagram</title>
<polygon fill="white" stroke="white" points="-4,5 -4,-1228 897,-1228 897,5 -4,5"/>
<!-- Assessment -->
<g id="node1" class="node"><title>Assessment</title>
<polyline fill="none" stroke="black" points="184.5,-199 343.5,-199 "/>
<path fill="none" stroke="black" d="M343.5,-199C349.5,-199 355.5,-205 355.5,-211"/>
<polyline fill="none" stroke="black" points="355.5,-211 355.5,-329 "/>
<path fill="none" stroke="black" d="M355.5,-329C355.5,-335 349.5,-341 343.5,-341"/>
<polyline fill="none" stroke="black" points="343.5,-341 184.5,-341 "/>
<path fill="none" stroke="black" d="M184.5,-341C178.5,-341 172.5,-335 172.5,-329"/>
<polyline fill="none" stroke="black" points="172.5,-329 172.5,-211 "/>
<path fill="none" stroke="black" d="M172.5,-211C172.5,-205 178.5,-199 184.5,-199"/>
<text text-anchor="middle" x="264" y="-324.4" font-family="Times Roman,serif" font-size="14.00">Assessment</text>
<polyline fill="none" stroke="black" points="172.5,-315 355.5,-315 "/>
<text text-anchor="start" x="180.5" y="-298.4" font-family="Times Roman,serif" font-size="14.00">id :integer</text>
<text text-anchor="start" x="180.5" y="-280.4" font-family="Times Roman,serif" font-size="14.00">result_id :integer</text>
<text text-anchor="start" x="180.5" y="-262.4" font-family="Times Roman,serif" font-size="14.00">assessment_type :string</text>
<text text-anchor="start" x="180.5" y="-244.4" font-family="Times Roman,serif" font-size="14.00">deleted :boolean</text>
<text text-anchor="start" x="180.5" y="-226.4" font-family="Times Roman,serif" font-size="14.00">created_at :datetime</text>
<text text-anchor="start" x="180.5" y="-208.4" font-family="Times Roman,serif" font-size="14.00">updated_at :datetime</text>
</g>
<!-- AssessmentResult -->
<g id="node4" class="node"><title>AssessmentResult</title>
<polyline fill="none" stroke="black" points="189,-1 339,-1 "/>
<path fill="none" stroke="black" d="M339,-1C345,-1 351,-7 351,-13"/>
<polyline fill="none" stroke="black" points="351,-13 351,-149 "/>
<path fill="none" stroke="black" d="M351,-149C351,-155 345,-161 339,-161"/>
<polyline fill="none" stroke="black" points="339,-161 189,-161 "/>
<path fill="none" stroke="black" d="M189,-161C183,-161 177,-155 177,-149"/>
<polyline fill="none" stroke="black" points="177,-149 177,-13 "/>
<path fill="none" stroke="black" d="M177,-13C177,-7 183,-1 189,-1"/>
<text text-anchor="middle" x="264" y="-144.4" font-family="Times Roman,serif" font-size="14.00">AssessmentResult</text>
<polyline fill="none" stroke="black" points="177,-135 351,-135 "/>
<text text-anchor="start" x="185" y="-118.4" font-family="Times Roman,serif" font-size="14.00">id :integer</text>
<text text-anchor="start" x="185" y="-100.4" font-family="Times Roman,serif" font-size="14.00">assessment_id :integer</text>
<text text-anchor="start" x="185" y="-82.4" font-family="Times Roman,serif" font-size="14.00">question_id :integer</text>
<text text-anchor="start" x="185" y="-64.4" font-family="Times Roman,serif" font-size="14.00">answer :text</text>
<text text-anchor="start" x="185" y="-46.4" font-family="Times Roman,serif" font-size="14.00">deleted :boolean</text>
<text text-anchor="start" x="185" y="-28.4" font-family="Times Roman,serif" font-size="14.00">created_at :datetime</text>
<text text-anchor="start" x="185" y="-10.4" font-family="Times Roman,serif" font-size="14.00">updated_at :datetime</text>
</g>
<!-- Assessment&#45;&gt;AssessmentResult -->
<g id="edge2" class="edge"><title>Assessment&#45;&gt;AssessmentResult</title>
<path fill="none" stroke="#f2cedd" d="M264,-190.712C264,-184.332 264,-177.857 264,-171.407"/>
<ellipse fill="none" stroke="#f2cedd" cx="264" cy="-194.817" rx="4" ry="4"/>
<polygon fill="#f2cedd" stroke="#f2cedd" points="264,-171.311 268.5,-161.311 264,-166.311 264,-161.311 264,-161.311 264,-161.311 264,-166.311 259.5,-161.311 264,-171.311 264,-171.311"/>
</g>
<!-- Project -->
<g id="node2" class="node"><title>Project</title>
<polyline fill="none" stroke="black" points="739.5,-811 880.5,-811 "/>
<path fill="none" stroke="black" d="M880.5,-811C886.5,-811 892.5,-817 892.5,-823"/>
<polyline fill="none" stroke="black" points="892.5,-823 892.5,-995 "/>
<path fill="none" stroke="black" d="M892.5,-995C892.5,-1001 886.5,-1007 880.5,-1007"/>
<polyline fill="none" stroke="black" points="880.5,-1007 739.5,-1007 "/>
<path fill="none" stroke="black" d="M739.5,-1007C733.5,-1007 727.5,-1001 727.5,-995"/>
<polyline fill="none" stroke="black" points="727.5,-995 727.5,-823 "/>
<path fill="none" stroke="black" d="M727.5,-823C727.5,-817 733.5,-811 739.5,-811"/>
<text text-anchor="middle" x="810" y="-990.4" font-family="Times Roman,serif" font-size="14.00">Project</text>
<polyline fill="none" stroke="black" points="727.5,-981 892.5,-981 "/>
<text text-anchor="start" x="735.5" y="-964.4" font-family="Times Roman,serif" font-size="14.00">id :integer</text>
<text text-anchor="start" x="735.5" y="-946.4" font-family="Times Roman,serif" font-size="14.00">name :string</text>
<text text-anchor="start" x="735.5" y="-928.4" font-family="Times Roman,serif" font-size="14.00">description :text</text>
<text text-anchor="start" x="735.5" y="-910.4" font-family="Times Roman,serif" font-size="14.00">start_date :date</text>
<text text-anchor="start" x="735.5" y="-892.4" font-family="Times Roman,serif" font-size="14.00">end_date :date</text>
<text text-anchor="start" x="735.5" y="-874.4" font-family="Times Roman,serif" font-size="14.00">deleted :boolean</text>
<text text-anchor="start" x="735.5" y="-856.4" font-family="Times Roman,serif" font-size="14.00">created_at :datetime</text>
<text text-anchor="start" x="735.5" y="-838.4" font-family="Times Roman,serif" font-size="14.00">updated_at :datetime</text>
<text text-anchor="start" x="735.5" y="-820.4" font-family="Times Roman,serif" font-size="14.00">creator_id :integer</text>
</g>
<!-- ProjectGroup -->
<g id="node11" class="node"><title>ProjectGroup</title>
<polyline fill="none" stroke="black" points="739.5,-595 880.5,-595 "/>
<path fill="none" stroke="black" d="M880.5,-595C886.5,-595 892.5,-601 892.5,-607"/>
<polyline fill="none" stroke="black" points="892.5,-607 892.5,-725 "/>
<path fill="none" stroke="black" d="M892.5,-725C892.5,-731 886.5,-737 880.5,-737"/>
<polyline fill="none" stroke="black" points="880.5,-737 739.5,-737 "/>
<path fill="none" stroke="black" d="M739.5,-737C733.5,-737 727.5,-731 727.5,-725"/>
<polyline fill="none" stroke="black" points="727.5,-725 727.5,-607 "/>
<path fill="none" stroke="black" d="M727.5,-607C727.5,-601 733.5,-595 739.5,-595"/>
<text text-anchor="middle" x="810" y="-720.4" font-family="Times Roman,serif" font-size="14.00">ProjectGroup</text>
<polyline fill="none" stroke="black" points="727.5,-711 892.5,-711 "/>
<text text-anchor="start" x="735.5" y="-694.4" font-family="Times Roman,serif" font-size="14.00">id :integer</text>
<text text-anchor="start" x="735.5" y="-676.4" font-family="Times Roman,serif" font-size="14.00">project_id :integer</text>
<text text-anchor="start" x="735.5" y="-658.4" font-family="Times Roman,serif" font-size="14.00">group_id :integer</text>
<text text-anchor="start" x="735.5" y="-640.4" font-family="Times Roman,serif" font-size="14.00">created_at :datetime</text>
<text text-anchor="start" x="735.5" y="-622.4" font-family="Times Roman,serif" font-size="14.00">updated_at :datetime</text>
<text text-anchor="start" x="735.5" y="-604.4" font-family="Times Roman,serif" font-size="14.00">creator_id :integer</text>
</g>
<!-- Project&#45;&gt;ProjectGroup -->
<g id="edge4" class="edge"><title>Project&#45;&gt;ProjectGroup</title>
<path fill="none" stroke="#488663" d="M810,-802.738C810,-784.221 810,-765.224 810,-747.504"/>
<ellipse fill="none" stroke="#488663" cx="810" cy="-806.863" rx="4" ry="4"/>
<polygon fill="#488663" stroke="#488663" points="810,-747.232 814.5,-737.232 810,-742.232 810,-737.232 810,-737.232 810,-737.232 810,-742.232 805.5,-737.232 810,-747.232 810,-747.232"/>
</g>
<!-- Rule -->
<g id="node3" class="node"><title>Rule</title>
<polyline fill="none" stroke="black" points="178.5,-1063 319.5,-1063 "/>
<path fill="none" stroke="black" d="M319.5,-1063C325.5,-1063 331.5,-1069 331.5,-1075"/>
<polyline fill="none" stroke="black" points="331.5,-1075 331.5,-1211 "/>
<path fill="none" stroke="black" d="M331.5,-1211C331.5,-1217 325.5,-1223 319.5,-1223"/>
<polyline fill="none" stroke="black" points="319.5,-1223 178.5,-1223 "/>
<path fill="none" stroke="black" d="M178.5,-1223C172.5,-1223 166.5,-1217 166.5,-1211"/>
<polyline fill="none" stroke="black" points="166.5,-1211 166.5,-1075 "/>
<path fill="none" stroke="black" d="M166.5,-1075C166.5,-1069 172.5,-1063 178.5,-1063"/>
<text text-anchor="middle" x="249" y="-1206.4" font-family="Times Roman,serif" font-size="14.00">Rule</text>
<polyline fill="none" stroke="black" points="166.5,-1197 331.5,-1197 "/>
<text text-anchor="start" x="174.5" y="-1180.4" font-family="Times Roman,serif" font-size="14.00">id :integer</text>
<text text-anchor="start" x="174.5" y="-1162.4" font-family="Times Roman,serif" font-size="14.00">title :string</text>
<text text-anchor="start" x="174.5" y="-1144.4" font-family="Times Roman,serif" font-size="14.00">procedure :text</text>
<text text-anchor="start" x="174.5" y="-1126.4" font-family="Times Roman,serif" font-size="14.00">deleted :boolean</text>
<text text-anchor="start" x="174.5" y="-1108.4" font-family="Times Roman,serif" font-size="14.00">created_at :datetime</text>
<text text-anchor="start" x="174.5" y="-1090.4" font-family="Times Roman,serif" font-size="14.00">updated_at :datetime</text>
<text text-anchor="start" x="174.5" y="-1072.4" font-family="Times Roman,serif" font-size="14.00">creator_id :integer</text>
</g>
<!-- Exercise -->
<g id="node12" class="node"><title>Exercise</title>
<polyline fill="none" stroke="black" points="169.5,-793 328.5,-793 "/>
<path fill="none" stroke="black" d="M328.5,-793C334.5,-793 340.5,-799 340.5,-805"/>
<polyline fill="none" stroke="black" points="340.5,-805 340.5,-1013 "/>
<path fill="none" stroke="black" d="M340.5,-1013C340.5,-1019 334.5,-1025 328.5,-1025"/>
<polyline fill="none" stroke="black" points="328.5,-1025 169.5,-1025 "/>
<path fill="none" stroke="black" d="M169.5,-1025C163.5,-1025 157.5,-1019 157.5,-1013"/>
<polyline fill="none" stroke="black" points="157.5,-1013 157.5,-805 "/>
<path fill="none" stroke="black" d="M157.5,-805C157.5,-799 163.5,-793 169.5,-793"/>
<text text-anchor="middle" x="249" y="-1008.4" font-family="Times Roman,serif" font-size="14.00">Exercise</text>
<polyline fill="none" stroke="black" points="157.5,-999 340.5,-999 "/>
<text text-anchor="start" x="165.5" y="-982.4" font-family="Times Roman,serif" font-size="14.00">id :integer</text>
<text text-anchor="start" x="165.5" y="-964.4" font-family="Times Roman,serif" font-size="14.00">admin_id :integer</text>
<text text-anchor="start" x="165.5" y="-946.4" font-family="Times Roman,serif" font-size="14.00">rule_id :integer</text>
<text text-anchor="start" x="165.5" y="-928.4" font-family="Times Roman,serif" font-size="14.00">name :string</text>
<text text-anchor="start" x="165.5" y="-910.4" font-family="Times Roman,serif" font-size="14.00">description :text</text>
<text text-anchor="start" x="165.5" y="-892.4" font-family="Times Roman,serif" font-size="14.00">assessment_type :string</text>
<text text-anchor="start" x="165.5" y="-874.4" font-family="Times Roman,serif" font-size="14.00">assigned_at :datetime</text>
<text text-anchor="start" x="165.5" y="-856.4" font-family="Times Roman,serif" font-size="14.00">completed_at :datetime</text>
<text text-anchor="start" x="165.5" y="-838.4" font-family="Times Roman,serif" font-size="14.00">deleted :boolean</text>
<text text-anchor="start" x="165.5" y="-820.4" font-family="Times Roman,serif" font-size="14.00">created_at :datetime</text>
<text text-anchor="start" x="165.5" y="-802.4" font-family="Times Roman,serif" font-size="14.00">updated_at :datetime</text>
</g>
<!-- Rule&#45;&gt;Exercise -->
<g id="edge6" class="edge"><title>Rule&#45;&gt;Exercise</title>
<path fill="none" stroke="#15e136" d="M249,-1054.73C249,-1048.37 249,-1041.89 249,-1035.38"/>
<ellipse fill="none" stroke="#15e136" cx="249" cy="-1058.8" rx="4" ry="4"/>
<polygon fill="#15e136" stroke="#15e136" points="249,-1035.11 253.5,-1025.11 249,-1030.11 249,-1025.11 249,-1025.11 249,-1025.11 249,-1030.11 244.5,-1025.11 249,-1035.11 249,-1035.11"/>
</g>
<!-- ExerciseGroup -->
<g id="node5" class="node"><title>ExerciseGroup</title>
<polyline fill="none" stroke="black" points="375.5,-604 516.5,-604 "/>
<path fill="none" stroke="black" d="M516.5,-604C522.5,-604 528.5,-610 528.5,-616"/>
<polyline fill="none" stroke="black" points="528.5,-616 528.5,-716 "/>
<path fill="none" stroke="black" d="M528.5,-716C528.5,-722 522.5,-728 516.5,-728"/>
<polyline fill="none" stroke="black" points="516.5,-728 375.5,-728 "/>
<path fill="none" stroke="black" d="M375.5,-728C369.5,-728 363.5,-722 363.5,-716"/>
<polyline fill="none" stroke="black" points="363.5,-716 363.5,-616 "/>
<path fill="none" stroke="black" d="M363.5,-616C363.5,-610 369.5,-604 375.5,-604"/>
<text text-anchor="middle" x="446" y="-711.4" font-family="Times Roman,serif" font-size="14.00">ExerciseGroup</text>
<polyline fill="none" stroke="black" points="363.5,-702 528.5,-702 "/>
<text text-anchor="start" x="371.5" y="-685.4" font-family="Times Roman,serif" font-size="14.00">id :integer</text>
<text text-anchor="start" x="371.5" y="-667.4" font-family="Times Roman,serif" font-size="14.00">exercise_id :integer</text>
<text text-anchor="start" x="371.5" y="-649.4" font-family="Times Roman,serif" font-size="14.00">group_id :integer</text>
<text text-anchor="start" x="371.5" y="-631.4" font-family="Times Roman,serif" font-size="14.00">created_at :datetime</text>
<text text-anchor="start" x="371.5" y="-613.4" font-family="Times Roman,serif" font-size="14.00">updated_at :datetime</text>
</g>
<!-- GroupStudy -->
<g id="node6" class="node"><title>GroupStudy</title>
<polyline fill="none" stroke="black" points="557.5,-595 698.5,-595 "/>
<path fill="none" stroke="black" d="M698.5,-595C704.5,-595 710.5,-601 710.5,-607"/>
<polyline fill="none" stroke="black" points="710.5,-607 710.5,-725 "/>
<path fill="none" stroke="black" d="M710.5,-725C710.5,-731 704.5,-737 698.5,-737"/>
<polyline fill="none" stroke="black" points="698.5,-737 557.5,-737 "/>
<path fill="none" stroke="black" d="M557.5,-737C551.5,-737 545.5,-731 545.5,-725"/>
<polyline fill="none" stroke="black" points="545.5,-725 545.5,-607 "/>
<path fill="none" stroke="black" d="M545.5,-607C545.5,-601 551.5,-595 557.5,-595"/>
<text text-anchor="middle" x="628" y="-720.4" font-family="Times Roman,serif" font-size="14.00">GroupStudy</text>
<polyline fill="none" stroke="black" points="545.5,-711 710.5,-711 "/>
<text text-anchor="start" x="553.5" y="-694.4" font-family="Times Roman,serif" font-size="14.00">id :integer</text>
<text text-anchor="start" x="553.5" y="-676.4" font-family="Times Roman,serif" font-size="14.00">group_id :integer</text>
<text text-anchor="start" x="553.5" y="-658.4" font-family="Times Roman,serif" font-size="14.00">study_id :integer</text>
<text text-anchor="start" x="553.5" y="-640.4" font-family="Times Roman,serif" font-size="14.00">created_at :datetime</text>
<text text-anchor="start" x="553.5" y="-622.4" font-family="Times Roman,serif" font-size="14.00">updated_at :datetime</text>
<text text-anchor="start" x="553.5" y="-604.4" font-family="Times Roman,serif" font-size="14.00">creator_id :integer</text>
</g>
<!-- ReliabilityId -->
<g id="node7" class="node"><title>ReliabilityId</title>
<polyline fill="none" stroke="black" points="193.5,-577 334.5,-577 "/>
<path fill="none" stroke="black" d="M334.5,-577C340.5,-577 346.5,-583 346.5,-589"/>
<polyline fill="none" stroke="black" points="346.5,-589 346.5,-743 "/>
<path fill="none" stroke="black" d="M346.5,-743C346.5,-749 340.5,-755 334.5,-755"/>
<polyline fill="none" stroke="black" points="334.5,-755 193.5,-755 "/>
<path fill="none" stroke="black" d="M193.5,-755C187.5,-755 181.5,-749 181.5,-743"/>
<polyline fill="none" stroke="black" points="181.5,-743 181.5,-589 "/>
<path fill="none" stroke="black" d="M181.5,-589C181.5,-583 187.5,-577 193.5,-577"/>
<text text-anchor="middle" x="264" y="-738.4" font-family="Times Roman,serif" font-size="14.00">ReliabilityId</text>
<polyline fill="none" stroke="black" points="181.5,-729 346.5,-729 "/>
<text text-anchor="start" x="189.5" y="-712.4" font-family="Times Roman,serif" font-size="14.00">id :integer</text>
<text text-anchor="start" x="189.5" y="-694.4" font-family="Times Roman,serif" font-size="14.00">unique_id :string</text>
<text text-anchor="start" x="189.5" y="-676.4" font-family="Times Roman,serif" font-size="14.00">study_id :integer</text>
<text text-anchor="start" x="189.5" y="-658.4" font-family="Times Roman,serif" font-size="14.00">deleted :boolean</text>
<text text-anchor="start" x="189.5" y="-640.4" font-family="Times Roman,serif" font-size="14.00">created_at :datetime</text>
<text text-anchor="start" x="189.5" y="-622.4" font-family="Times Roman,serif" font-size="14.00">updated_at :datetime</text>
<text text-anchor="start" x="189.5" y="-604.4" font-family="Times Roman,serif" font-size="14.00">user_id :integer</text>
<text text-anchor="start" x="189.5" y="-586.4" font-family="Times Roman,serif" font-size="14.00">exercise_id :integer</text>
</g>
<!-- Result -->
<g id="node8" class="node"><title>Result</title>
<polyline fill="none" stroke="black" points="187,-379 341,-379 "/>
<path fill="none" stroke="black" d="M341,-379C347,-379 353,-385 353,-391"/>
<polyline fill="none" stroke="black" points="353,-391 353,-527 "/>
<path fill="none" stroke="black" d="M353,-527C353,-533 347,-539 341,-539"/>
<polyline fill="none" stroke="black" points="341,-539 187,-539 "/>
<path fill="none" stroke="black" d="M187,-539C181,-539 175,-533 175,-527"/>
<polyline fill="none" stroke="black" points="175,-527 175,-391 "/>
<path fill="none" stroke="black" d="M175,-391C175,-385 181,-379 187,-379"/>
<text text-anchor="middle" x="264" y="-522.4" font-family="Times Roman,serif" font-size="14.00">Result</text>
<polyline fill="none" stroke="black" points="175,-513 353,-513 "/>
<text text-anchor="start" x="183" y="-496.4" font-family="Times Roman,serif" font-size="14.00">id :integer</text>
<text text-anchor="start" x="183" y="-478.4" font-family="Times Roman,serif" font-size="14.00">result_type :string</text>
<text text-anchor="start" x="183" y="-460.4" font-family="Times Roman,serif" font-size="14.00">location :string</text>
<text text-anchor="start" x="183" y="-442.4" font-family="Times Roman,serif" font-size="14.00">deleted :boolean</text>
<text text-anchor="start" x="183" y="-424.4" font-family="Times Roman,serif" font-size="14.00">created_at :datetime</text>
<text text-anchor="start" x="183" y="-406.4" font-family="Times Roman,serif" font-size="14.00">updated_at :datetime</text>
<text text-anchor="start" x="183" y="-388.4" font-family="Times Roman,serif" font-size="14.00">reliability_id_id :integer</text>
</g>
<!-- ReliabilityId&#45;&gt;Result -->
<g id="edge8" class="edge"><title>ReliabilityId&#45;&gt;Result</title>
<path fill="none" stroke="#0f390a" d="M264,-568.493C264,-561.439 264,-554.348 264,-547.352"/>
<ellipse fill="none" stroke="#0f390a" cx="264" cy="-572.711" rx="4" ry="4"/>
<ellipse fill="#0f390a" stroke="#0f390a" cx="264" cy="-543.19" rx="4" ry="4"/>
</g>
<!-- Result&#45;&gt;Assessment -->
<g id="edge10" class="edge"><title>Result&#45;&gt;Assessment</title>
<path fill="none" stroke="#5aef21" d="M264,-370.62C264,-363.555 264,-356.444 264,-349.446"/>
<ellipse fill="none" stroke="#5aef21" cx="264" cy="-374.847" rx="4" ry="4"/>
<ellipse fill="#5aef21" stroke="#5aef21" cx="264" cy="-345.293" rx="4" ry="4"/>
</g>
<!-- Authentication -->
<g id="node9" class="node"><title>Authentication</title>
<polyline fill="none" stroke="black" points="554.5,-1072 695.5,-1072 "/>
<path fill="none" stroke="black" d="M695.5,-1072C701.5,-1072 707.5,-1078 707.5,-1084"/>
<polyline fill="none" stroke="black" points="707.5,-1084 707.5,-1202 "/>
<path fill="none" stroke="black" d="M707.5,-1202C707.5,-1208 701.5,-1214 695.5,-1214"/>
<polyline fill="none" stroke="black" points="695.5,-1214 554.5,-1214 "/>
<path fill="none" stroke="black" d="M554.5,-1214C548.5,-1214 542.5,-1208 542.5,-1202"/>
<polyline fill="none" stroke="black" points="542.5,-1202 542.5,-1084 "/>
<path fill="none" stroke="black" d="M542.5,-1084C542.5,-1078 548.5,-1072 554.5,-1072"/>
<text text-anchor="middle" x="625" y="-1197.4" font-family="Times Roman,serif" font-size="14.00">Authentication</text>
<polyline fill="none" stroke="black" points="542.5,-1188 707.5,-1188 "/>
<text text-anchor="start" x="550.5" y="-1171.4" font-family="Times Roman,serif" font-size="14.00">id :integer</text>
<text text-anchor="start" x="550.5" y="-1153.4" font-family="Times Roman,serif" font-size="14.00">user_id :integer</text>
<text text-anchor="start" x="550.5" y="-1135.4" font-family="Times Roman,serif" font-size="14.00">provider :string</text>
<text text-anchor="start" x="550.5" y="-1117.4" font-family="Times Roman,serif" font-size="14.00">uid :string</text>
<text text-anchor="start" x="550.5" y="-1099.4" font-family="Times Roman,serif" font-size="14.00">created_at :datetime</text>
<text text-anchor="start" x="550.5" y="-1081.4" font-family="Times Roman,serif" font-size="14.00">updated_at :datetime</text>
</g>
<!-- StudyType -->
<g id="node10" class="node"><title>StudyType</title>
<polyline fill="none" stroke="black" points="372.5,-1063 513.5,-1063 "/>
<path fill="none" stroke="black" d="M513.5,-1063C519.5,-1063 525.5,-1069 525.5,-1075"/>
<polyline fill="none" stroke="black" points="525.5,-1075 525.5,-1211 "/>
<path fill="none" stroke="black" d="M525.5,-1211C525.5,-1217 519.5,-1223 513.5,-1223"/>
<polyline fill="none" stroke="black" points="513.5,-1223 372.5,-1223 "/>
<path fill="none" stroke="black" d="M372.5,-1223C366.5,-1223 360.5,-1217 360.5,-1211"/>
<polyline fill="none" stroke="black" points="360.5,-1211 360.5,-1075 "/>
<path fill="none" stroke="black" d="M360.5,-1075C360.5,-1069 366.5,-1063 372.5,-1063"/>
<text text-anchor="middle" x="443" y="-1206.4" font-family="Times Roman,serif" font-size="14.00">StudyType</text>
<polyline fill="none" stroke="black" points="360.5,-1197 525.5,-1197 "/>
<text text-anchor="start" x="368.5" y="-1180.4" font-family="Times Roman,serif" font-size="14.00">id :integer</text>
<text text-anchor="start" x="368.5" y="-1162.4" font-family="Times Roman,serif" font-size="14.00">name :string</text>
<text text-anchor="start" x="368.5" y="-1144.4" font-family="Times Roman,serif" font-size="14.00">description :text</text>
<text text-anchor="start" x="368.5" y="-1126.4" font-family="Times Roman,serif" font-size="14.00">deleted :boolean</text>
<text text-anchor="start" x="368.5" y="-1108.4" font-family="Times Roman,serif" font-size="14.00">created_at :datetime</text>
<text text-anchor="start" x="368.5" y="-1090.4" font-family="Times Roman,serif" font-size="14.00">updated_at :datetime</text>
<text text-anchor="start" x="368.5" y="-1072.4" font-family="Times Roman,serif" font-size="14.00">creator_id :integer</text>
</g>
<!-- Study -->
<g id="node13" class="node"><title>Study</title>
<polyline fill="none" stroke="black" points="369.5,-820 516.5,-820 "/>
<path fill="none" stroke="black" d="M516.5,-820C522.5,-820 528.5,-826 528.5,-832"/>
<polyline fill="none" stroke="black" points="528.5,-832 528.5,-986 "/>
<path fill="none" stroke="black" d="M528.5,-986C528.5,-992 522.5,-998 516.5,-998"/>
<polyline fill="none" stroke="black" points="516.5,-998 369.5,-998 "/>
<path fill="none" stroke="black" d="M369.5,-998C363.5,-998 357.5,-992 357.5,-986"/>
<polyline fill="none" stroke="black" points="357.5,-986 357.5,-832 "/>
<path fill="none" stroke="black" d="M357.5,-832C357.5,-826 363.5,-820 369.5,-820"/>
<text text-anchor="middle" x="443" y="-981.4" font-family="Times Roman,serif" font-size="14.00">Study</text>
<polyline fill="none" stroke="black" points="357.5,-972 528.5,-972 "/>
<text text-anchor="start" x="365.5" y="-955.4" font-family="Times Roman,serif" font-size="14.00">id :integer</text>
<text text-anchor="start" x="365.5" y="-937.4" font-family="Times Roman,serif" font-size="14.00">original_id :string</text>
<text text-anchor="start" x="365.5" y="-919.4" font-family="Times Roman,serif" font-size="14.00">study_type_id :integer</text>
<text text-anchor="start" x="365.5" y="-901.4" font-family="Times Roman,serif" font-size="14.00">location :string</text>
<text text-anchor="start" x="365.5" y="-883.4" font-family="Times Roman,serif" font-size="14.00">deleted :boolean</text>
<text text-anchor="start" x="365.5" y="-865.4" font-family="Times Roman,serif" font-size="14.00">created_at :datetime</text>
<text text-anchor="start" x="365.5" y="-847.4" font-family="Times Roman,serif" font-size="14.00">updated_at :datetime</text>
<text text-anchor="start" x="365.5" y="-829.4" font-family="Times Roman,serif" font-size="14.00">creator_id :integer</text>
</g>
<!-- StudyType&#45;&gt;Study -->
<g id="edge12" class="edge"><title>StudyType&#45;&gt;Study</title>
<path fill="none" stroke="#3510c1" d="M443,-1054.44C443,-1039.52 443,-1023.94 443,-1008.76"/>
<ellipse fill="none" stroke="#3510c1" cx="443" cy="-1058.8" rx="4" ry="4"/>
<polygon fill="#3510c1" stroke="#3510c1" points="443,-1008.33 447.5,-998.325 443,-1003.33 443,-998.325 443,-998.325 443,-998.325 443,-1003.33 438.5,-998.325 443,-1008.33 443,-1008.33"/>
</g>
<!-- Exercise&#45;&gt;ExerciseGroup -->
<g id="edge16" class="edge"><title>Exercise&#45;&gt;ExerciseGroup</title>
<path fill="none" stroke="#84f38a" d="M345.677,-789.749C360.482,-771.486 375.343,-753.156 388.92,-736.409"/>
<ellipse fill="none" stroke="#84f38a" cx="343.098" cy="-792.93" rx="4.00002" ry="4.00002"/>
<polygon fill="#84f38a" stroke="#84f38a" points="389.178,-736.09 398.971,-731.156 392.327,-732.206 395.475,-728.322 395.475,-728.322 395.475,-728.322 392.327,-732.206 391.98,-725.488 389.178,-736.09 389.178,-736.09"/>
</g>
<!-- Exercise&#45;&gt;ReliabilityId -->
<g id="edge18" class="edge"><title>Exercise&#45;&gt;ReliabilityId</title>
<path fill="none" stroke="#f8fc0c" d="M256.667,-784.802C257.072,-778.226 257.478,-771.661 257.878,-765.184"/>
<ellipse fill="none" stroke="#f8fc0c" cx="256.417" cy="-788.845" rx="4" ry="4"/>
<polygon fill="#f8fc0c" stroke="#f8fc0c" points="257.885,-765.069 262.992,-755.366 258.193,-760.079 258.501,-755.088 258.501,-755.088 258.501,-755.088 258.193,-760.079 254.009,-754.811 257.885,-765.069 257.885,-765.069"/>
</g>
<!-- ExerciseUser -->
<g id="node15" class="node"><title>ExerciseUser</title>
<polyline fill="none" stroke="black" points="11.5,-604 152.5,-604 "/>
<path fill="none" stroke="black" d="M152.5,-604C158.5,-604 164.5,-610 164.5,-616"/>
<polyline fill="none" stroke="black" points="164.5,-616 164.5,-716 "/>
<path fill="none" stroke="black" d="M164.5,-716C164.5,-722 158.5,-728 152.5,-728"/>
<polyline fill="none" stroke="black" points="152.5,-728 11.5,-728 "/>
<path fill="none" stroke="black" d="M11.5,-728C5.5,-728 -0.5,-722 -0.5,-716"/>
<polyline fill="none" stroke="black" points="-0.5,-716 -0.5,-616 "/>
<path fill="none" stroke="black" d="M-0.5,-616C-0.5,-610 5.5,-604 11.5,-604"/>
<text text-anchor="middle" x="82" y="-711.4" font-family="Times Roman,serif" font-size="14.00">ExerciseUser</text>
<polyline fill="none" stroke="black" points="-0.5,-702 164.5,-702 "/>
<text text-anchor="start" x="7.5" y="-685.4" font-family="Times Roman,serif" font-size="14.00">id :integer</text>
<text text-anchor="start" x="7.5" y="-667.4" font-family="Times Roman,serif" font-size="14.00">exercise_id :integer</text>
<text text-anchor="start" x="7.5" y="-649.4" font-family="Times Roman,serif" font-size="14.00">user_id :integer</text>
<text text-anchor="start" x="7.5" y="-631.4" font-family="Times Roman,serif" font-size="14.00">created_at :datetime</text>
<text text-anchor="start" x="7.5" y="-613.4" font-family="Times Roman,serif" font-size="14.00">updated_at :datetime</text>
</g>
<!-- Exercise&#45;&gt;ExerciseUser -->
<g id="edge14" class="edge"><title>Exercise&#45;&gt;ExerciseUser</title>
<path fill="none" stroke="#994269" d="M164.49,-786.03C152.847,-769.089 141.231,-752.186 130.546,-736.639"/>
<ellipse fill="none" stroke="#994269" cx="166.903" cy="-789.541" rx="4.00002" ry="4.00002"/>
<polygon fill="#994269" stroke="#994269" points="130.375,-736.391 128.42,-725.6 127.543,-732.27 124.712,-728.149 124.712,-728.149 124.712,-728.149 127.543,-732.27 121.003,-730.698 130.375,-736.391 130.375,-736.391"/>
</g>
<!-- Study&#45;&gt;GroupStudy -->
<g id="edge22" class="edge"><title>Study&#45;&gt;GroupStudy</title>
<path fill="none" stroke="#d76e2c" d="M515.725,-813.474C532.874,-790.95 550.973,-767.176 567.515,-745.448"/>
<ellipse fill="none" stroke="#d76e2c" cx="513.26" cy="-816.713" rx="4.00002" ry="4.00002"/>
<polygon fill="#d76e2c" stroke="#d76e2c" points="567.716,-745.184 577.354,-739.954 570.744,-741.206 573.773,-737.228 573.773,-737.228 573.773,-737.228 570.744,-741.206 570.193,-734.502 567.716,-745.184 567.716,-745.184"/>
</g>
<!-- Study&#45;&gt;ReliabilityId -->
<g id="edge20" class="edge"><title>Study&#45;&gt;ReliabilityId</title>
<path fill="none" stroke="#96aca3" d="M372.591,-813.417C360.427,-796.903 347.769,-779.719 335.574,-763.164"/>
<ellipse fill="none" stroke="#96aca3" cx="374.991" cy="-816.675" rx="4.00002" ry="4.00002"/>
<polygon fill="#96aca3" stroke="#96aca3" points="335.56,-763.145 333.252,-752.425 332.594,-759.119 329.629,-755.094 329.629,-755.094 329.629,-755.094 332.594,-759.119 326.006,-757.763 335.56,-763.145 335.56,-763.145"/>
</g>
<!-- Group -->
<g id="node14" class="node"><title>Group</title>
<polyline fill="none" stroke="black" points="557.5,-829 698.5,-829 "/>
<path fill="none" stroke="black" d="M698.5,-829C704.5,-829 710.5,-835 710.5,-841"/>
<polyline fill="none" stroke="black" points="710.5,-841 710.5,-977 "/>
<path fill="none" stroke="black" d="M710.5,-977C710.5,-983 704.5,-989 698.5,-989"/>
<polyline fill="none" stroke="black" points="698.5,-989 557.5,-989 "/>
<path fill="none" stroke="black" d="M557.5,-989C551.5,-989 545.5,-983 545.5,-977"/>
<polyline fill="none" stroke="black" points="545.5,-977 545.5,-841 "/>
<path fill="none" stroke="black" d="M545.5,-841C545.5,-835 551.5,-829 557.5,-829"/>
<text text-anchor="middle" x="628" y="-972.4" font-family="Times Roman,serif" font-size="14.00">Group</text>
<polyline fill="none" stroke="black" points="545.5,-963 710.5,-963 "/>
<text text-anchor="start" x="553.5" y="-946.4" font-family="Times Roman,serif" font-size="14.00">id :integer</text>
<text text-anchor="start" x="553.5" y="-928.4" font-family="Times Roman,serif" font-size="14.00">name :string</text>
<text text-anchor="start" x="553.5" y="-910.4" font-family="Times Roman,serif" font-size="14.00">description :string</text>
<text text-anchor="start" x="553.5" y="-892.4" font-family="Times Roman,serif" font-size="14.00">deleted :boolean</text>
<text text-anchor="start" x="553.5" y="-874.4" font-family="Times Roman,serif" font-size="14.00">created_at :datetime</text>
<text text-anchor="start" x="553.5" y="-856.4" font-family="Times Roman,serif" font-size="14.00">updated_at :datetime</text>
<text text-anchor="start" x="553.5" y="-838.4" font-family="Times Roman,serif" font-size="14.00">creator_id :integer</text>
</g>
<!-- Group&#45;&gt;ExerciseGroup -->
<g id="edge28" class="edge"><title>Group&#45;&gt;ExerciseGroup</title>
<path fill="none" stroke="#95378b" d="M562.971,-822.175C541.858,-793.987 518.71,-763.08 498.618,-736.254"/>
<ellipse fill="none" stroke="#95378b" cx="565.504" cy="-825.558" rx="4.00002" ry="4.00002"/>
<polygon fill="#95378b" stroke="#95378b" points="498.481,-736.071 496.088,-725.37 495.484,-732.069 492.487,-728.067 492.487,-728.067 492.487,-728.067 495.484,-732.069 488.885,-730.765 498.481,-736.071 498.481,-736.071"/>
</g>
<!-- Group&#45;&gt;GroupStudy -->
<g id="edge26" class="edge"><title>Group&#45;&gt;GroupStudy</title>
<path fill="none" stroke="#c72e4f" d="M628,-820.702C628,-796.772 628,-770.981 628,-747.447"/>
<ellipse fill="none" stroke="#c72e4f" cx="628" cy="-824.759" rx="4" ry="4"/>
<polygon fill="#c72e4f" stroke="#c72e4f" points="628,-747.161 632.5,-737.161 628,-742.161 628,-737.161 628,-737.161 628,-737.161 628,-742.161 623.5,-737.161 628,-747.161 628,-747.161"/>
</g>
<!-- Group&#45;&gt;ProjectGroup -->
<g id="edge24" class="edge"><title>Group&#45;&gt;ProjectGroup</title>
<path fill="none" stroke="#79fd3c" d="M693.075,-822.114C711.819,-797.088 732.164,-769.925 750.548,-745.378"/>
<ellipse fill="none" stroke="#79fd3c" cx="690.496" cy="-825.558" rx="4.00002" ry="4.00002"/>
<polygon fill="#79fd3c" stroke="#79fd3c" points="750.708,-745.165 760.304,-739.859 753.705,-741.163 756.702,-737.161 756.702,-737.161 756.702,-737.161 753.705,-741.163 753.1,-734.464 750.708,-745.165 750.708,-745.165"/>
</g>
</g>
</svg>
