<?xml version="1.0" encoding="UTF-8" standalone="no"?>
<!DOCTYPE svg PUBLIC "-//W3C//DTD SVG 1.1//EN"
 "http://www.w3.org/Graphics/SVG/1.1/DTD/svg11.dtd">
<!-- Generated by graphviz version 2.26.3 (20100126.1600)
 -->
<!-- Title: models_diagram Pages: 1 -->
<svg width="1614pt" height="1430pt"
 viewBox="0.00 0.00 1614.00 1430.00" xmlns="http://www.w3.org/2000/svg" xmlns:xlink="http://www.w3.org/1999/xlink">
<g id="graph1" class="graph" transform="scale(1 1) rotate(0) translate(4 1426)">
<title>models_diagram</title>
<polygon fill="white" stroke="white" points="-4,5 -4,-1426 1611,-1426 1611,5 -4,5"/>
<!-- Assessment -->
<g id="node1" class="node"><title>Assessment</title>
<polyline fill="none" stroke="black" points="11.5,-226 170.5,-226 "/>
<path fill="none" stroke="black" d="M170.5,-226C176.5,-226 182.5,-232 182.5,-238"/>
<polyline fill="none" stroke="black" points="182.5,-238 182.5,-356 "/>
<path fill="none" stroke="black" d="M182.5,-356C182.5,-362 176.5,-368 170.5,-368"/>
<polyline fill="none" stroke="black" points="170.5,-368 11.5,-368 "/>
<path fill="none" stroke="black" d="M11.5,-368C5.5,-368 -0.5,-362 -0.5,-356"/>
<polyline fill="none" stroke="black" points="-0.5,-356 -0.5,-238 "/>
<path fill="none" stroke="black" d="M-0.5,-238C-0.5,-232 5.5,-226 11.5,-226"/>
<text text-anchor="middle" x="91" y="-351.4" font-family="Times Roman,serif" font-size="14.00">Assessment</text>
<polyline fill="none" stroke="black" points="-0.5,-342 182.5,-342 "/>
<text text-anchor="start" x="7.5" y="-325.4" font-family="Times Roman,serif" font-size="14.00">id :integer</text>
<text text-anchor="start" x="7.5" y="-307.4" font-family="Times Roman,serif" font-size="14.00">result_id :integer</text>
<text text-anchor="start" x="7.5" y="-289.4" font-family="Times Roman,serif" font-size="14.00">assessment_type :string</text>
<text text-anchor="start" x="7.5" y="-271.4" font-family="Times Roman,serif" font-size="14.00">deleted :boolean</text>
<text text-anchor="start" x="7.5" y="-253.4" font-family="Times Roman,serif" font-size="14.00">created_at :datetime</text>
<text text-anchor="start" x="7.5" y="-235.4" font-family="Times Roman,serif" font-size="14.00">updated_at :datetime</text>
</g>
<!-- AssessmentResult -->
<g id="node4" class="node"><title>AssessmentResult</title>
<polyline fill="none" stroke="black" points="16,-1 166,-1 "/>
<path fill="none" stroke="black" d="M166,-1C172,-1 178,-7 178,-13"/>
<polyline fill="none" stroke="black" points="178,-13 178,-149 "/>
<path fill="none" stroke="black" d="M178,-149C178,-155 172,-161 166,-161"/>
<polyline fill="none" stroke="black" points="166,-161 16,-161 "/>
<path fill="none" stroke="black" d="M16,-161C10,-161 4,-155 4,-149"/>
<polyline fill="none" stroke="black" points="4,-149 4,-13 "/>
<path fill="none" stroke="black" d="M4,-13C4,-7 10,-1 16,-1"/>
<text text-anchor="middle" x="91" y="-144.4" font-family="Times Roman,serif" font-size="14.00">AssessmentResult</text>
<polyline fill="none" stroke="black" points="4,-135 178,-135 "/>
<text text-anchor="start" x="12" y="-118.4" font-family="Times Roman,serif" font-size="14.00">id :integer</text>
<text text-anchor="start" x="12" y="-100.4" font-family="Times Roman,serif" font-size="14.00">assessment_id :integer</text>
<text text-anchor="start" x="12" y="-82.4" font-family="Times Roman,serif" font-size="14.00">question_id :integer</text>
<text text-anchor="start" x="12" y="-64.4" font-family="Times Roman,serif" font-size="14.00">answer :text</text>
<text text-anchor="start" x="12" y="-46.4" font-family="Times Roman,serif" font-size="14.00">deleted :boolean</text>
<text text-anchor="start" x="12" y="-28.4" font-family="Times Roman,serif" font-size="14.00">created_at :datetime</text>
<text text-anchor="start" x="12" y="-10.4" font-family="Times Roman,serif" font-size="14.00">updated_at :datetime</text>
</g>
<!-- Assessment&#45;&gt;AssessmentResult -->
<g id="edge2" class="edge"><title>Assessment&#45;&gt;AssessmentResult</title>
<path fill="none" stroke="#f6367f" d="M91,-217.593C91,-202.464 91,-186.528 91,-171.094"/>
<ellipse fill="none" stroke="#f6367f" cx="91" cy="-221.974" rx="4" ry="4"/>
<polygon fill="#f6367f" stroke="#f6367f" points="91.0001,-171.038 95.5,-161.038 91,-166.038 91,-161.038 91,-161.038 91,-161.038 91,-166.038 86.5,-161.038 91.0001,-171.038 91.0001,-171.038"/>
</g>
<!-- Project -->
<g id="node2" class="node"><title>Project</title>
<polyline fill="none" stroke="black" points="779.5,-685 920.5,-685 "/>
<path fill="none" stroke="black" d="M920.5,-685C926.5,-685 932.5,-691 932.5,-697"/>
<polyline fill="none" stroke="black" points="932.5,-697 932.5,-869 "/>
<path fill="none" stroke="black" d="M932.5,-869C932.5,-875 926.5,-881 920.5,-881"/>
<polyline fill="none" stroke="black" points="920.5,-881 779.5,-881 "/>
<path fill="none" stroke="black" d="M779.5,-881C773.5,-881 767.5,-875 767.5,-869"/>
<polyline fill="none" stroke="black" points="767.5,-869 767.5,-697 "/>
<path fill="none" stroke="black" d="M767.5,-697C767.5,-691 773.5,-685 779.5,-685"/>
<text text-anchor="middle" x="850" y="-864.4" font-family="Times Roman,serif" font-size="14.00">Project</text>
<polyline fill="none" stroke="black" points="767.5,-855 932.5,-855 "/>
<text text-anchor="start" x="775.5" y="-838.4" font-family="Times Roman,serif" font-size="14.00">id :integer</text>
<text text-anchor="start" x="775.5" y="-820.4" font-family="Times Roman,serif" font-size="14.00">name :string</text>
<text text-anchor="start" x="775.5" y="-802.4" font-family="Times Roman,serif" font-size="14.00">description :text</text>
<text text-anchor="start" x="775.5" y="-784.4" font-family="Times Roman,serif" font-size="14.00">start_date :date</text>
<text text-anchor="start" x="775.5" y="-766.4" font-family="Times Roman,serif" font-size="14.00">end_date :date</text>
<text text-anchor="start" x="775.5" y="-748.4" font-family="Times Roman,serif" font-size="14.00">deleted :boolean</text>
<text text-anchor="start" x="775.5" y="-730.4" font-family="Times Roman,serif" font-size="14.00">created_at :datetime</text>
<text text-anchor="start" x="775.5" y="-712.4" font-family="Times Roman,serif" font-size="14.00">updated_at :datetime</text>
<text text-anchor="start" x="775.5" y="-694.4" font-family="Times Roman,serif" font-size="14.00">creator_id :integer</text>
</g>
<!-- ProjectGroup -->
<g id="node12" class="node"><title>ProjectGroup</title>
<polyline fill="none" stroke="black" points="779.5,-469 920.5,-469 "/>
<path fill="none" stroke="black" d="M920.5,-469C926.5,-469 932.5,-475 932.5,-481"/>
<polyline fill="none" stroke="black" points="932.5,-481 932.5,-599 "/>
<path fill="none" stroke="black" d="M932.5,-599C932.5,-605 926.5,-611 920.5,-611"/>
<polyline fill="none" stroke="black" points="920.5,-611 779.5,-611 "/>
<path fill="none" stroke="black" d="M779.5,-611C773.5,-611 767.5,-605 767.5,-599"/>
<polyline fill="none" stroke="black" points="767.5,-599 767.5,-481 "/>
<path fill="none" stroke="black" d="M767.5,-481C767.5,-475 773.5,-469 779.5,-469"/>
<text text-anchor="middle" x="850" y="-594.4" font-family="Times Roman,serif" font-size="14.00">ProjectGroup</text>
<polyline fill="none" stroke="black" points="767.5,-585 932.5,-585 "/>
<text text-anchor="start" x="775.5" y="-568.4" font-family="Times Roman,serif" font-size="14.00">id :integer</text>
<text text-anchor="start" x="775.5" y="-550.4" font-family="Times Roman,serif" font-size="14.00">project_id :integer</text>
<text text-anchor="start" x="775.5" y="-532.4" font-family="Times Roman,serif" font-size="14.00">group_id :integer</text>
<text text-anchor="start" x="775.5" y="-514.4" font-family="Times Roman,serif" font-size="14.00">created_at :datetime</text>
<text text-anchor="start" x="775.5" y="-496.4" font-family="Times Roman,serif" font-size="14.00">updated_at :datetime</text>
<text text-anchor="start" x="775.5" y="-478.4" font-family="Times Roman,serif" font-size="14.00">creator_id :integer</text>
</g>
<!-- Project&#45;&gt;ProjectGroup -->
<g id="edge4" class="edge"><title>Project&#45;&gt;ProjectGroup</title>
<path fill="none" stroke="#60be98" d="M850,-676.738C850,-658.221 850,-639.224 850,-621.504"/>
<ellipse fill="none" stroke="#60be98" cx="850" cy="-680.863" rx="4" ry="4"/>
<polygon fill="#60be98" stroke="#60be98" points="850,-621.232 854.5,-611.232 850,-616.232 850,-611.232 850,-611.232 850,-611.232 850,-616.232 845.5,-611.232 850,-621.232 850,-621.232"/>
</g>
<!-- Rule -->
<g id="node3" class="node"><title>Rule</title>
<polyline fill="none" stroke="black" points="1181.5,-694 1340.5,-694 "/>
<path fill="none" stroke="black" d="M1340.5,-694C1346.5,-694 1352.5,-700 1352.5,-706"/>
<polyline fill="none" stroke="black" points="1352.5,-706 1352.5,-860 "/>
<path fill="none" stroke="black" d="M1352.5,-860C1352.5,-866 1346.5,-872 1340.5,-872"/>
<polyline fill="none" stroke="black" points="1340.5,-872 1181.5,-872 "/>
<path fill="none" stroke="black" d="M1181.5,-872C1175.5,-872 1169.5,-866 1169.5,-860"/>
<polyline fill="none" stroke="black" points="1169.5,-860 1169.5,-706 "/>
<path fill="none" stroke="black" d="M1169.5,-706C1169.5,-700 1175.5,-694 1181.5,-694"/>
<text text-anchor="middle" x="1261" y="-855.4" font-family="Times Roman,serif" font-size="14.00">Rule</text>
<polyline fill="none" stroke="black" points="1169.5,-846 1352.5,-846 "/>
<text text-anchor="start" x="1177.5" y="-829.4" font-family="Times Roman,serif" font-size="14.00">id :integer</text>
<text text-anchor="start" x="1177.5" y="-811.4" font-family="Times Roman,serif" font-size="14.00">title :string</text>
<text text-anchor="start" x="1177.5" y="-793.4" font-family="Times Roman,serif" font-size="14.00">procedure :text</text>
<text text-anchor="start" x="1177.5" y="-775.4" font-family="Times Roman,serif" font-size="14.00">deleted :boolean</text>
<text text-anchor="start" x="1177.5" y="-757.4" font-family="Times Roman,serif" font-size="14.00">created_at :datetime</text>
<text text-anchor="start" x="1177.5" y="-739.4" font-family="Times Roman,serif" font-size="14.00">updated_at :datetime</text>
<text text-anchor="start" x="1177.5" y="-721.4" font-family="Times Roman,serif" font-size="14.00">creator_id :integer</text>
<text text-anchor="start" x="1177.5" y="-703.4" font-family="Times Roman,serif" font-size="14.00">assessment_type :string</text>
</g>
<!-- Exercise -->
<g id="node13" class="node"><title>Exercise</title>
<polyline fill="none" stroke="black" points="1182.5,-433 1337.5,-433 "/>
<path fill="none" stroke="black" d="M1337.5,-433C1343.5,-433 1349.5,-439 1349.5,-445"/>
<polyline fill="none" stroke="black" points="1349.5,-445 1349.5,-635 "/>
<path fill="none" stroke="black" d="M1349.5,-635C1349.5,-641 1343.5,-647 1337.5,-647"/>
<polyline fill="none" stroke="black" points="1337.5,-647 1182.5,-647 "/>
<path fill="none" stroke="black" d="M1182.5,-647C1176.5,-647 1170.5,-641 1170.5,-635"/>
<polyline fill="none" stroke="black" points="1170.5,-635 1170.5,-445 "/>
<path fill="none" stroke="black" d="M1170.5,-445C1170.5,-439 1176.5,-433 1182.5,-433"/>
<text text-anchor="middle" x="1260" y="-630.4" font-family="Times Roman,serif" font-size="14.00">Exercise</text>
<polyline fill="none" stroke="black" points="1170.5,-621 1349.5,-621 "/>
<text text-anchor="start" x="1178.5" y="-604.4" font-family="Times Roman,serif" font-size="14.00">id :integer</text>
<text text-anchor="start" x="1178.5" y="-586.4" font-family="Times Roman,serif" font-size="14.00">admin_id :integer</text>
<text text-anchor="start" x="1178.5" y="-568.4" font-family="Times Roman,serif" font-size="14.00">rule_id :integer</text>
<text text-anchor="start" x="1178.5" y="-550.4" font-family="Times Roman,serif" font-size="14.00">name :string</text>
<text text-anchor="start" x="1178.5" y="-532.4" font-family="Times Roman,serif" font-size="14.00">description :text</text>
<text text-anchor="start" x="1178.5" y="-514.4" font-family="Times Roman,serif" font-size="14.00">assigned_at :datetime</text>
<text text-anchor="start" x="1178.5" y="-496.4" font-family="Times Roman,serif" font-size="14.00">completed_at :datetime</text>
<text text-anchor="start" x="1178.5" y="-478.4" font-family="Times Roman,serif" font-size="14.00">deleted :boolean</text>
<text text-anchor="start" x="1178.5" y="-460.4" font-family="Times Roman,serif" font-size="14.00">created_at :datetime</text>
<text text-anchor="start" x="1178.5" y="-442.4" font-family="Times Roman,serif" font-size="14.00">updated_at :datetime</text>
</g>
<!-- Rule&#45;&gt;Exercise -->
<g id="edge6" class="edge"><title>Rule&#45;&gt;Exercise</title>
<path fill="none" stroke="#6f10cc" d="M1260.6,-685.653C1260.56,-676.377 1260.52,-666.905 1260.48,-657.466"/>
<ellipse fill="none" stroke="#6f10cc" cx="1260.62" cy="-689.896" rx="4" ry="4"/>
<polygon fill="#6f10cc" stroke="#6f10cc" points="1260.48,-657.246 1264.94,-647.228 1260.46,-652.246 1260.44,-647.246 1260.44,-647.246 1260.44,-647.246 1260.46,-652.246 1255.94,-647.265 1260.48,-657.246 1260.48,-657.246"/>
</g>
<!-- ExerciseGroup -->
<g id="node5" class="node"><title>ExerciseGroup</title>
<polyline fill="none" stroke="black" points="1127.5,-235 1268.5,-235 "/>
<path fill="none" stroke="black" d="M1268.5,-235C1274.5,-235 1280.5,-241 1280.5,-247"/>
<polyline fill="none" stroke="black" points="1280.5,-247 1280.5,-347 "/>
<path fill="none" stroke="black" d="M1280.5,-347C1280.5,-353 1274.5,-359 1268.5,-359"/>
<polyline fill="none" stroke="black" points="1268.5,-359 1127.5,-359 "/>
<path fill="none" stroke="black" d="M1127.5,-359C1121.5,-359 1115.5,-353 1115.5,-347"/>
<polyline fill="none" stroke="black" points="1115.5,-347 1115.5,-247 "/>
<path fill="none" stroke="black" d="M1115.5,-247C1115.5,-241 1121.5,-235 1127.5,-235"/>
<text text-anchor="middle" x="1198" y="-342.4" font-family="Times Roman,serif" font-size="14.00">ExerciseGroup</text>
<polyline fill="none" stroke="black" points="1115.5,-333 1280.5,-333 "/>
<text text-anchor="start" x="1123.5" y="-316.4" font-family="Times Roman,serif" font-size="14.00">id :integer</text>
<text text-anchor="start" x="1123.5" y="-298.4" font-family="Times Roman,serif" font-size="14.00">exercise_id :integer</text>
<text text-anchor="start" x="1123.5" y="-280.4" font-family="Times Roman,serif" font-size="14.00">group_id :integer</text>
<text text-anchor="start" x="1123.5" y="-262.4" font-family="Times Roman,serif" font-size="14.00">created_at :datetime</text>
<text text-anchor="start" x="1123.5" y="-244.4" font-family="Times Roman,serif" font-size="14.00">updated_at :datetime</text>
</g>
<!-- GroupStudy -->
<g id="node6" class="node"><title>GroupStudy</title>
<polyline fill="none" stroke="black" points="945.5,-226 1086.5,-226 "/>
<path fill="none" stroke="black" d="M1086.5,-226C1092.5,-226 1098.5,-232 1098.5,-238"/>
<polyline fill="none" stroke="black" points="1098.5,-238 1098.5,-356 "/>
<path fill="none" stroke="black" d="M1098.5,-356C1098.5,-362 1092.5,-368 1086.5,-368"/>
<polyline fill="none" stroke="black" points="1086.5,-368 945.5,-368 "/>
<path fill="none" stroke="black" d="M945.5,-368C939.5,-368 933.5,-362 933.5,-356"/>
<polyline fill="none" stroke="black" points="933.5,-356 933.5,-238 "/>
<path fill="none" stroke="black" d="M933.5,-238C933.5,-232 939.5,-226 945.5,-226"/>
<text text-anchor="middle" x="1016" y="-351.4" font-family="Times Roman,serif" font-size="14.00">GroupStudy</text>
<polyline fill="none" stroke="black" points="933.5,-342 1098.5,-342 "/>
<text text-anchor="start" x="941.5" y="-325.4" font-family="Times Roman,serif" font-size="14.00">id :integer</text>
<text text-anchor="start" x="941.5" y="-307.4" font-family="Times Roman,serif" font-size="14.00">group_id :integer</text>
<text text-anchor="start" x="941.5" y="-289.4" font-family="Times Roman,serif" font-size="14.00">study_id :integer</text>
<text text-anchor="start" x="941.5" y="-271.4" font-family="Times Roman,serif" font-size="14.00">created_at :datetime</text>
<text text-anchor="start" x="941.5" y="-253.4" font-family="Times Roman,serif" font-size="14.00">updated_at :datetime</text>
<text text-anchor="start" x="941.5" y="-235.4" font-family="Times Roman,serif" font-size="14.00">creator_id :integer</text>
</g>
<!-- ReliabilityId -->
<g id="node7" class="node"><title>ReliabilityId</title>
<polyline fill="none" stroke="black" points="393.5,-199 534.5,-199 "/>
<path fill="none" stroke="black" d="M534.5,-199C540.5,-199 546.5,-205 546.5,-211"/>
<polyline fill="none" stroke="black" points="546.5,-211 546.5,-383 "/>
<path fill="none" stroke="black" d="M546.5,-383C546.5,-389 540.5,-395 534.5,-395"/>
<polyline fill="none" stroke="black" points="534.5,-395 393.5,-395 "/>
<path fill="none" stroke="black" d="M393.5,-395C387.5,-395 381.5,-389 381.5,-383"/>
<polyline fill="none" stroke="black" points="381.5,-383 381.5,-211 "/>
<path fill="none" stroke="black" d="M381.5,-211C381.5,-205 387.5,-199 393.5,-199"/>
<text text-anchor="middle" x="464" y="-378.4" font-family="Times Roman,serif" font-size="14.00">ReliabilityId</text>
<polyline fill="none" stroke="black" points="381.5,-369 546.5,-369 "/>
<text text-anchor="start" x="389.5" y="-352.4" font-family="Times Roman,serif" font-size="14.00">id :integer</text>
<text text-anchor="start" x="389.5" y="-334.4" font-family="Times Roman,serif" font-size="14.00">unique_id :string</text>
<text text-anchor="start" x="389.5" y="-316.4" font-family="Times Roman,serif" font-size="14.00">study_id :integer</text>
<text text-anchor="start" x="389.5" y="-298.4" font-family="Times Roman,serif" font-size="14.00">deleted :boolean</text>
<text text-anchor="start" x="389.5" y="-280.4" font-family="Times Roman,serif" font-size="14.00">created_at :datetime</text>
<text text-anchor="start" x="389.5" y="-262.4" font-family="Times Roman,serif" font-size="14.00">updated_at :datetime</text>
<text text-anchor="start" x="389.5" y="-244.4" font-family="Times Roman,serif" font-size="14.00">user_id :integer</text>
<text text-anchor="start" x="389.5" y="-226.4" font-family="Times Roman,serif" font-size="14.00">exercise_id :integer</text>
<text text-anchor="start" x="389.5" y="-208.4" font-family="Times Roman,serif" font-size="14.00">result_id :integer</text>
</g>
<!-- Result -->
<g id="node8" class="node"><title>Result</title>
<polyline fill="none" stroke="black" points="151.5,-469 292.5,-469 "/>
<path fill="none" stroke="black" d="M292.5,-469C298.5,-469 304.5,-475 304.5,-481"/>
<polyline fill="none" stroke="black" points="304.5,-481 304.5,-599 "/>
<path fill="none" stroke="black" d="M304.5,-599C304.5,-605 298.5,-611 292.5,-611"/>
<polyline fill="none" stroke="black" points="292.5,-611 151.5,-611 "/>
<path fill="none" stroke="black" d="M151.5,-611C145.5,-611 139.5,-605 139.5,-599"/>
<polyline fill="none" stroke="black" points="139.5,-599 139.5,-481 "/>
<path fill="none" stroke="black" d="M139.5,-481C139.5,-475 145.5,-469 151.5,-469"/>
<text text-anchor="middle" x="222" y="-594.4" font-family="Times Roman,serif" font-size="14.00">Result</text>
<polyline fill="none" stroke="black" points="139.5,-585 304.5,-585 "/>
<text text-anchor="start" x="147.5" y="-568.4" font-family="Times Roman,serif" font-size="14.00">id :integer</text>
<text text-anchor="start" x="147.5" y="-550.4" font-family="Times Roman,serif" font-size="14.00">result_type :string</text>
<text text-anchor="start" x="147.5" y="-532.4" font-family="Times Roman,serif" font-size="14.00">location :string</text>
<text text-anchor="start" x="147.5" y="-514.4" font-family="Times Roman,serif" font-size="14.00">deleted :boolean</text>
<text text-anchor="start" x="147.5" y="-496.4" font-family="Times Roman,serif" font-size="14.00">created_at :datetime</text>
<text text-anchor="start" x="147.5" y="-478.4" font-family="Times Roman,serif" font-size="14.00">updated_at :datetime</text>
</g>
<!-- ReliabilityId&#45;&gt;Result -->
<g id="edge8" class="edge"><title>ReliabilityId&#45;&gt;Result</title>
<path fill="none" stroke="#5dfdce" d="M376.592,-400.092C355.608,-415.158 343.547,-413.647 322,-432 311.133,-441.256 300.503,-451.888 290.457,-462.79"/>
<ellipse fill="none" stroke="#5dfdce" cx="379.912" cy="-397.545" rx="4.00002" ry="4.00002"/>
<ellipse fill="#5dfdce" stroke="#5dfdce" cx="287.627" cy="-465.907" rx="4.00002" ry="4.00002"/>
</g>
<!-- Result&#45;&gt;Assessment -->
<g id="edge14" class="edge"><title>Result&#45;&gt;Assessment</title>
<path fill="none" stroke="#93bf75" d="M179.735,-461.6C164.887,-434.058 148.21,-403.122 133.355,-375.566"/>
<ellipse fill="none" stroke="#93bf75" cx="181.683" cy="-465.213" rx="4.00002" ry="4.00002"/>
<ellipse fill="#93bf75" stroke="#93bf75" cx="131.317" cy="-371.786" rx="4.00002" ry="4.00002"/>
</g>
<!-- Result&#45;&gt;ReliabilityId -->
<g id="edge10" class="edge"><title>Result&#45;&gt;ReliabilityId</title>
<path fill="none" stroke="#34888b" d="M272.669,-462.79C282.503,-451.888 293.133,-441.256 304,-432 327.674,-411.835 339.896,-415.65 364,-396 367.859,-392.854 371.707,-389.545 375.524,-386.122"/>
<ellipse fill="none" stroke="#34888b" cx="269.942" cy="-465.873" rx="4.00002" ry="4.00002"/>
<ellipse fill="#34888b" stroke="#34888b" cx="378.543" cy="-383.357" rx="4.00002" ry="4.00002"/>
</g>
<!-- StudyOriginalResult -->
<g id="node10" class="node"><title>StudyOriginalResult</title>
<polyline fill="none" stroke="black" points="211.5,-226 352.5,-226 "/>
<path fill="none" stroke="black" d="M352.5,-226C358.5,-226 364.5,-232 364.5,-238"/>
<polyline fill="none" stroke="black" points="364.5,-238 364.5,-356 "/>
<path fill="none" stroke="black" d="M364.5,-356C364.5,-362 358.5,-368 352.5,-368"/>
<polyline fill="none" stroke="black" points="352.5,-368 211.5,-368 "/>
<path fill="none" stroke="black" d="M211.5,-368C205.5,-368 199.5,-362 199.5,-356"/>
<polyline fill="none" stroke="black" points="199.5,-356 199.5,-238 "/>
<path fill="none" stroke="black" d="M199.5,-238C199.5,-232 205.5,-226 211.5,-226"/>
<text text-anchor="middle" x="282" y="-351.4" font-family="Times Roman,serif" font-size="14.00">StudyOriginalResult</text>
<polyline fill="none" stroke="black" points="199.5,-342 364.5,-342 "/>
<text text-anchor="start" x="207.5" y="-325.4" font-family="Times Roman,serif" font-size="14.00">id :integer</text>
<text text-anchor="start" x="207.5" y="-307.4" font-family="Times Roman,serif" font-size="14.00">study_id :integer</text>
<text text-anchor="start" x="207.5" y="-289.4" font-family="Times Roman,serif" font-size="14.00">result_id :integer</text>
<text text-anchor="start" x="207.5" y="-271.4" font-family="Times Roman,serif" font-size="14.00">rule_id :integer</text>
<text text-anchor="start" x="207.5" y="-253.4" font-family="Times Roman,serif" font-size="14.00">created_at :datetime</text>
<text text-anchor="start" x="207.5" y="-235.4" font-family="Times Roman,serif" font-size="14.00">updated_at :datetime</text>
</g>
<!-- Result&#45;&gt;StudyOriginalResult -->
<g id="edge12" class="edge"><title>Result&#45;&gt;StudyOriginalResult</title>
<path fill="none" stroke="#34f4c8" d="M241.546,-460.84C248.246,-433.702 255.742,-403.343 262.444,-376.202"/>
<ellipse fill="none" stroke="#34f4c8" cx="240.555" cy="-464.851" rx="4.00001" ry="4.00001"/>
<ellipse fill="#34f4c8" stroke="#34f4c8" cx="263.445" cy="-372.148" rx="4.00001" ry="4.00001"/>
</g>
<!-- Authentication -->
<g id="node9" class="node"><title>Authentication</title>
<polyline fill="none" stroke="black" points="597.5,-712 738.5,-712 "/>
<path fill="none" stroke="black" d="M738.5,-712C744.5,-712 750.5,-718 750.5,-724"/>
<polyline fill="none" stroke="black" points="750.5,-724 750.5,-842 "/>
<path fill="none" stroke="black" d="M750.5,-842C750.5,-848 744.5,-854 738.5,-854"/>
<polyline fill="none" stroke="black" points="738.5,-854 597.5,-854 "/>
<path fill="none" stroke="black" d="M597.5,-854C591.5,-854 585.5,-848 585.5,-842"/>
<polyline fill="none" stroke="black" points="585.5,-842 585.5,-724 "/>
<path fill="none" stroke="black" d="M585.5,-724C585.5,-718 591.5,-712 597.5,-712"/>
<text text-anchor="middle" x="668" y="-837.4" font-family="Times Roman,serif" font-size="14.00">Authentication</text>
<polyline fill="none" stroke="black" points="585.5,-828 750.5,-828 "/>
<text text-anchor="start" x="593.5" y="-811.4" font-family="Times Roman,serif" font-size="14.00">id :integer</text>
<text text-anchor="start" x="593.5" y="-793.4" font-family="Times Roman,serif" font-size="14.00">user_id :integer</text>
<text text-anchor="start" x="593.5" y="-775.4" font-family="Times Roman,serif" font-size="14.00">provider :string</text>
<text text-anchor="start" x="593.5" y="-757.4" font-family="Times Roman,serif" font-size="14.00">uid :string</text>
<text text-anchor="start" x="593.5" y="-739.4" font-family="Times Roman,serif" font-size="14.00">created_at :datetime</text>
<text text-anchor="start" x="593.5" y="-721.4" font-family="Times Roman,serif" font-size="14.00">updated_at :datetime</text>
</g>
<!-- StudyType -->
<g id="node11" class="node"><title>StudyType</title>
<polyline fill="none" stroke="black" points="301.5,-703 442.5,-703 "/>
<path fill="none" stroke="black" d="M442.5,-703C448.5,-703 454.5,-709 454.5,-715"/>
<polyline fill="none" stroke="black" points="454.5,-715 454.5,-851 "/>
<path fill="none" stroke="black" d="M454.5,-851C454.5,-857 448.5,-863 442.5,-863"/>
<polyline fill="none" stroke="black" points="442.5,-863 301.5,-863 "/>
<path fill="none" stroke="black" d="M301.5,-863C295.5,-863 289.5,-857 289.5,-851"/>
<polyline fill="none" stroke="black" points="289.5,-851 289.5,-715 "/>
<path fill="none" stroke="black" d="M289.5,-715C289.5,-709 295.5,-703 301.5,-703"/>
<text text-anchor="middle" x="372" y="-846.4" font-family="Times Roman,serif" font-size="14.00">StudyType</text>
<polyline fill="none" stroke="black" points="289.5,-837 454.5,-837 "/>
<text text-anchor="start" x="297.5" y="-820.4" font-family="Times Roman,serif" font-size="14.00">id :integer</text>
<text text-anchor="start" x="297.5" y="-802.4" font-family="Times Roman,serif" font-size="14.00">name :string</text>
<text text-anchor="start" x="297.5" y="-784.4" font-family="Times Roman,serif" font-size="14.00">description :text</text>
<text text-anchor="start" x="297.5" y="-766.4" font-family="Times Roman,serif" font-size="14.00">deleted :boolean</text>
<text text-anchor="start" x="297.5" y="-748.4" font-family="Times Roman,serif" font-size="14.00">created_at :datetime</text>
<text text-anchor="start" x="297.5" y="-730.4" font-family="Times Roman,serif" font-size="14.00">updated_at :datetime</text>
<text text-anchor="start" x="297.5" y="-712.4" font-family="Times Roman,serif" font-size="14.00">creator_id :integer</text>
</g>
<!-- Study -->
<g id="node14" class="node"><title>Study</title>
<polyline fill="none" stroke="black" points="333.5,-451 480.5,-451 "/>
<path fill="none" stroke="black" d="M480.5,-451C486.5,-451 492.5,-457 492.5,-463"/>
<polyline fill="none" stroke="black" points="492.5,-463 492.5,-617 "/>
<path fill="none" stroke="black" d="M492.5,-617C492.5,-623 486.5,-629 480.5,-629"/>
<polyline fill="none" stroke="black" points="480.5,-629 333.5,-629 "/>
<path fill="none" stroke="black" d="M333.5,-629C327.5,-629 321.5,-623 321.5,-617"/>
<polyline fill="none" stroke="black" points="321.5,-617 321.5,-463 "/>
<path fill="none" stroke="black" d="M321.5,-463C321.5,-457 327.5,-451 333.5,-451"/>
<text text-anchor="middle" x="407" y="-612.4" font-family="Times Roman,serif" font-size="14.00">Study</text>
<polyline fill="none" stroke="black" points="321.5,-603 492.5,-603 "/>
<text text-anchor="start" x="329.5" y="-586.4" font-family="Times Roman,serif" font-size="14.00">id :integer</text>
<text text-anchor="start" x="329.5" y="-568.4" font-family="Times Roman,serif" font-size="14.00">original_id :string</text>
<text text-anchor="start" x="329.5" y="-550.4" font-family="Times Roman,serif" font-size="14.00">study_type_id :integer</text>
<text text-anchor="start" x="329.5" y="-532.4" font-family="Times Roman,serif" font-size="14.00">location :string</text>
<text text-anchor="start" x="329.5" y="-514.4" font-family="Times Roman,serif" font-size="14.00">deleted :boolean</text>
<text text-anchor="start" x="329.5" y="-496.4" font-family="Times Roman,serif" font-size="14.00">created_at :datetime</text>
<text text-anchor="start" x="329.5" y="-478.4" font-family="Times Roman,serif" font-size="14.00">updated_at :datetime</text>
<text text-anchor="start" x="329.5" y="-460.4" font-family="Times Roman,serif" font-size="14.00">creator_id :integer</text>
</g>
<!-- StudyType&#45;&gt;Study -->
<g id="edge16" class="edge"><title>StudyType&#45;&gt;Study</title>
<path fill="none" stroke="#6eb550" d="M384.72,-694.689C387.304,-676.749 390.038,-657.764 392.673,-639.469"/>
<ellipse fill="none" stroke="#6eb550" cx="384.128" cy="-698.8" rx="4.00001" ry="4.00001"/>
<polygon fill="#6eb550" stroke="#6eb550" points="392.7,-639.285 398.579,-630.029 393.412,-634.336 394.125,-629.387 394.125,-629.387 394.125,-629.387 393.412,-634.336 389.671,-628.745 392.7,-639.285 392.7,-639.285"/>
</g>
<!-- Exercise&#45;&gt;ExerciseGroup -->
<g id="edge20" class="edge"><title>Exercise&#45;&gt;ExerciseGroup</title>
<path fill="none" stroke="#ab26d4" d="M1230.59,-424.722C1225.76,-405.804 1220.88,-386.684 1216.42,-369.204"/>
<ellipse fill="none" stroke="#ab26d4" cx="1231.64" cy="-428.833" rx="4.00001" ry="4.00001"/>
<polygon fill="#ab26d4" stroke="#ab26d4" points="1216.32,-368.805 1218.21,-358.003 1215.08,-363.96 1213.85,-359.115 1213.85,-359.115 1213.85,-359.115 1215.08,-363.96 1209.49,-360.228 1216.32,-368.805 1216.32,-368.805"/>
</g>
<!-- Exercise&#45;&gt;ReliabilityId -->
<g id="edge22" class="edge"><title>Exercise&#45;&gt;ReliabilityId</title>
<path fill="none" stroke="#e6920f" d="M1162.76,-505.652C1099.78,-483.761 1015.85,-455.247 941,-432 808.097,-390.724 652.784,-347.732 556.392,-321.658"/>
<ellipse fill="none" stroke="#e6920f" cx="1166.55" cy="-506.973" rx="4.00001" ry="4.00001"/>
<polygon fill="#e6920f" stroke="#e6920f" points="556.326,-321.64 547.846,-314.688 551.499,-320.336 546.672,-319.032 546.672,-319.032 546.672,-319.032 551.499,-320.336 545.499,-323.377 556.326,-321.64 556.326,-321.64"/>
</g>
<!-- ExerciseUser -->
<g id="node16" class="node"><title>ExerciseUser</title>
<polyline fill="none" stroke="black" points="1309.5,-235 1450.5,-235 "/>
<path fill="none" stroke="black" d="M1450.5,-235C1456.5,-235 1462.5,-241 1462.5,-247"/>
<polyline fill="none" stroke="black" points="1462.5,-247 1462.5,-347 "/>
<path fill="none" stroke="black" d="M1462.5,-347C1462.5,-353 1456.5,-359 1450.5,-359"/>
<polyline fill="none" stroke="black" points="1450.5,-359 1309.5,-359 "/>
<path fill="none" stroke="black" d="M1309.5,-359C1303.5,-359 1297.5,-353 1297.5,-347"/>
<polyline fill="none" stroke="black" points="1297.5,-347 1297.5,-247 "/>
<path fill="none" stroke="black" d="M1297.5,-247C1297.5,-241 1303.5,-235 1309.5,-235"/>
<text text-anchor="middle" x="1380" y="-342.4" font-family="Times Roman,serif" font-size="14.00">ExerciseUser</text>
<polyline fill="none" stroke="black" points="1297.5,-333 1462.5,-333 "/>
<text text-anchor="start" x="1305.5" y="-316.4" font-family="Times Roman,serif" font-size="14.00">id :integer</text>
<text text-anchor="start" x="1305.5" y="-298.4" font-family="Times Roman,serif" font-size="14.00">exercise_id :integer</text>
<text text-anchor="start" x="1305.5" y="-280.4" font-family="Times Roman,serif" font-size="14.00">user_id :integer</text>
<text text-anchor="start" x="1305.5" y="-262.4" font-family="Times Roman,serif" font-size="14.00">created_at :datetime</text>
<text text-anchor="start" x="1305.5" y="-244.4" font-family="Times Roman,serif" font-size="14.00">updated_at :datetime</text>
</g>
<!-- Exercise&#45;&gt;ExerciseUser -->
<g id="edge18" class="edge"><title>Exercise&#45;&gt;ExerciseUser</title>
<path fill="none" stroke="#a6021f" d="M1316.63,-425.315C1326.23,-405.879 1335.95,-386.211 1344.79,-368.307"/>
<ellipse fill="none" stroke="#a6021f" cx="1314.75" cy="-429.123" rx="4.00002" ry="4.00002"/>
<polygon fill="#a6021f" stroke="#a6021f" points="1344.9,-368.082 1353.36,-361.108 1347.11,-363.598 1349.33,-359.115 1349.33,-359.115 1349.33,-359.115 1347.11,-363.598 1345.29,-357.123 1344.9,-368.082 1344.9,-368.082"/>
</g>
<!-- Study&#45;&gt;GroupStudy -->
<g id="edge26" class="edge"><title>Study&#45;&gt;GroupStudy</title>
<path fill="none" stroke="#c76d6a" d="M500.304,-502.77C615.275,-456.895 809.404,-379.435 923.845,-333.771"/>
<ellipse fill="none" stroke="#c76d6a" cx="496.357" cy="-504.345" rx="4.00001" ry="4.00001"/>
<polygon fill="#c76d6a" stroke="#c76d6a" points="924.016,-333.703 934.972,-334.177 928.66,-331.85 933.304,-329.997 933.304,-329.997 933.304,-329.997 928.66,-331.85 931.636,-325.817 924.016,-333.703 924.016,-333.703"/>
</g>
<!-- Study&#45;&gt;ReliabilityId -->
<g id="edge24" class="edge"><title>Study&#45;&gt;ReliabilityId</title>
<path fill="none" stroke="#7f703a" d="M429.812,-442.75C432.715,-430.373 435.7,-417.645 438.641,-405.111"/>
<ellipse fill="none" stroke="#7f703a" cx="428.815" cy="-447.001" rx="4.00001" ry="4.00001"/>
<polygon fill="#7f703a" stroke="#7f703a" points="438.703,-404.845 445.368,-396.137 439.845,-399.977 440.987,-395.11 440.987,-395.11 440.987,-395.11 439.845,-399.977 436.606,-394.082 438.703,-404.845 438.703,-404.845"/>
</g>
<!-- Study&#45;&gt;StudyOriginalResult -->
<g id="edge28" class="edge"><title>Study&#45;&gt;StudyOriginalResult</title>
<path fill="none" stroke="#45e6e6" d="M357.363,-443.505C346.057,-421.526 334.164,-398.406 323.252,-377.193"/>
<ellipse fill="none" stroke="#45e6e6" cx="359.335" cy="-447.339" rx="4.00002" ry="4.00002"/>
<polygon fill="#45e6e6" stroke="#45e6e6" points="323.214,-377.12 322.641,-366.169 320.927,-372.674 318.64,-368.228 318.64,-368.228 318.64,-368.228 320.927,-372.674 314.638,-370.286 323.214,-377.12 323.214,-377.12"/>
</g>
<!-- Group -->
<g id="node15" class="node"><title>Group</title>
<polyline fill="none" stroke="black" points="961.5,-703 1102.5,-703 "/>
<path fill="none" stroke="black" d="M1102.5,-703C1108.5,-703 1114.5,-709 1114.5,-715"/>
<polyline fill="none" stroke="black" points="1114.5,-715 1114.5,-851 "/>
<path fill="none" stroke="black" d="M1114.5,-851C1114.5,-857 1108.5,-863 1102.5,-863"/>
<polyline fill="none" stroke="black" points="1102.5,-863 961.5,-863 "/>
<path fill="none" stroke="black" d="M961.5,-863C955.5,-863 949.5,-857 949.5,-851"/>
<polyline fill="none" stroke="black" points="949.5,-851 949.5,-715 "/>
<path fill="none" stroke="black" d="M949.5,-715C949.5,-709 955.5,-703 961.5,-703"/>
<text text-anchor="middle" x="1032" y="-846.4" font-family="Times Roman,serif" font-size="14.00">Group</text>
<polyline fill="none" stroke="black" points="949.5,-837 1114.5,-837 "/>
<text text-anchor="start" x="957.5" y="-820.4" font-family="Times Roman,serif" font-size="14.00">id :integer</text>
<text text-anchor="start" x="957.5" y="-802.4" font-family="Times Roman,serif" font-size="14.00">name :string</text>
<text text-anchor="start" x="957.5" y="-784.4" font-family="Times Roman,serif" font-size="14.00">description :string</text>
<text text-anchor="start" x="957.5" y="-766.4" font-family="Times Roman,serif" font-size="14.00">deleted :boolean</text>
<text text-anchor="start" x="957.5" y="-748.4" font-family="Times Roman,serif" font-size="14.00">created_at :datetime</text>
<text text-anchor="start" x="957.5" y="-730.4" font-family="Times Roman,serif" font-size="14.00">updated_at :datetime</text>
<text text-anchor="start" x="957.5" y="-712.4" font-family="Times Roman,serif" font-size="14.00">creator_id :integer</text>
</g>
<!-- Group&#45;&gt;ExerciseGroup -->
<g id="edge34" class="edge"><title>Group&#45;&gt;ExerciseGroup</title>
<path fill="none" stroke="#92be13" d="M1062.06,-694.994C1093.99,-601.502 1143.87,-455.473 1173.51,-368.713"/>
<ellipse fill="none" stroke="#92be13" cx="1060.7" cy="-698.962" rx="4.00001" ry="4.00001"/>
<polygon fill="#92be13" stroke="#92be13" points="1173.52,-368.675 1181.01,-360.667 1175.13,-363.944 1176.75,-359.212 1176.75,-359.212 1176.75,-359.212 1175.13,-363.944 1172.49,-357.757 1173.52,-368.675 1173.52,-368.675"/>
</g>
<!-- Group&#45;&gt;GroupStudy -->
<g id="edge32" class="edge"><title>Group&#45;&gt;GroupStudy</title>
<path fill="none" stroke="#e4569f" d="M1029.09,-694.694C1026.13,-604.596 1021.56,-465.935 1018.68,-378.415"/>
<ellipse fill="none" stroke="#e4569f" cx="1029.23" cy="-698.749" rx="4" ry="4"/>
<polygon fill="#e4569f" stroke="#e4569f" points="1018.68,-378.261 1022.84,-368.118 1018.51,-373.264 1018.35,-368.266 1018.35,-368.266 1018.35,-368.266 1018.51,-373.264 1013.85,-368.415 1018.68,-378.261 1018.68,-378.261"/>
</g>
<!-- Group&#45;&gt;ProjectGroup -->
<g id="edge30" class="edge"><title>Group&#45;&gt;ProjectGroup</title>
<path fill="none" stroke="#b4120e" d="M966.925,-696.114C948.181,-671.088 927.836,-643.925 909.452,-619.378"/>
<ellipse fill="none" stroke="#b4120e" cx="969.504" cy="-699.558" rx="4.00002" ry="4.00002"/>
<polygon fill="#b4120e" stroke="#b4120e" points="909.292,-619.165 906.9,-608.464 906.295,-615.163 903.298,-611.161 903.298,-611.161 903.298,-611.161 906.295,-615.163 899.696,-613.859 909.292,-619.165 909.292,-619.165"/>
</g>
<!-- User -->
<g id="node17" class="node"><title>User</title>
<polyline fill="none" stroke="black" points="735,-919 965,-919 "/>
<path fill="none" stroke="black" d="M965,-919C971,-919 977,-925 977,-931"/>
<polyline fill="none" stroke="black" points="977,-931 977,-1409 "/>
<path fill="none" stroke="black" d="M977,-1409C977,-1415 971,-1421 965,-1421"/>
<polyline fill="none" stroke="black" points="965,-1421 735,-1421 "/>
<path fill="none" stroke="black" d="M735,-1421C729,-1421 723,-1415 723,-1409"/>
<polyline fill="none" stroke="black" points="723,-1409 723,-931 "/>
<path fill="none" stroke="black" d="M723,-931C723,-925 729,-919 735,-919"/>
<text text-anchor="middle" x="850" y="-1404.4" font-family="Times Roman,serif" font-size="14.00">User</text>
<polyline fill="none" stroke="black" points="723,-1395 977,-1395 "/>
<text text-anchor="start" x="731" y="-1378.4" font-family="Times Roman,serif" font-size="14.00">id :integer</text>
<text text-anchor="start" x="731" y="-1360.4" font-family="Times Roman,serif" font-size="14.00">first_name :string</text>
<text text-anchor="start" x="731" y="-1342.4" font-family="Times Roman,serif" font-size="14.00">last_name :string</text>
<text text-anchor="start" x="731" y="-1324.4" font-family="Times Roman,serif" font-size="14.00">status :string</text>
<text text-anchor="start" x="731" y="-1306.4" font-family="Times Roman,serif" font-size="14.00">deleted :boolean</text>
<text text-anchor="start" x="731" y="-1288.4" font-family="Times Roman,serif" font-size="14.00">system_admin :boolean</text>
<text text-anchor="start" x="731" y="-1270.4" font-family="Times Roman,serif" font-size="14.00">email :string</text>
<text text-anchor="start" x="731" y="-1252.4" font-family="Times Roman,serif" font-size="14.00">encrypted_password :string</text>
<text text-anchor="start" x="731" y="-1234.4" font-family="Times Roman,serif" font-size="14.00">reset_password_token :string</text>
<text text-anchor="start" x="731" y="-1216.4" font-family="Times Roman,serif" font-size="14.00">reset_password_sent_at :datetime</text>
<text text-anchor="start" x="731" y="-1198.4" font-family="Times Roman,serif" font-size="14.00">remember_created_at :datetime</text>
<text text-anchor="start" x="731" y="-1180.4" font-family="Times Roman,serif" font-size="14.00">sign_in_count :integer</text>
<text text-anchor="start" x="731" y="-1162.4" font-family="Times Roman,serif" font-size="14.00">current_sign_in_at :datetime</text>
<text text-anchor="start" x="731" y="-1144.4" font-family="Times Roman,serif" font-size="14.00">last_sign_in_at :datetime</text>
<text text-anchor="start" x="731" y="-1126.4" font-family="Times Roman,serif" font-size="14.00">current_sign_in_ip :string</text>
<text text-anchor="start" x="731" y="-1108.4" font-family="Times Roman,serif" font-size="14.00">last_sign_in_ip :string</text>
<text text-anchor="start" x="731" y="-1090.4" font-family="Times Roman,serif" font-size="14.00">confirmation_token :string</text>
<text text-anchor="start" x="731" y="-1072.4" font-family="Times Roman,serif" font-size="14.00">confirmed_at :datetime</text>
<text text-anchor="start" x="731" y="-1054.4" font-family="Times Roman,serif" font-size="14.00">confirmation_sent_at :datetime</text>
<text text-anchor="start" x="731" y="-1036.4" font-family="Times Roman,serif" font-size="14.00">unconfirmed_email :string</text>
<text text-anchor="start" x="731" y="-1018.4" font-family="Times Roman,serif" font-size="14.00">failed_attempts :integer</text>
<text text-anchor="start" x="731" y="-1000.4" font-family="Times Roman,serif" font-size="14.00">unlock_token :string</text>
<text text-anchor="start" x="731" y="-982.4" font-family="Times Roman,serif" font-size="14.00">locked_at :datetime</text>
<text text-anchor="start" x="731" y="-964.4" font-family="Times Roman,serif" font-size="14.00">authentication_token :string</text>
<text text-anchor="start" x="731" y="-946.4" font-family="Times Roman,serif" font-size="14.00">created_at :datetime</text>
<text text-anchor="start" x="731" y="-928.4" font-family="Times Roman,serif" font-size="14.00">updated_at :datetime</text>
</g>
<!-- User&#45;&gt;Project -->
<g id="edge52" class="edge"><title>User&#45;&gt;Project</title>
<path fill="none" stroke="#6f7bac" d="M850,-910.702C850,-904.201 850,-897.811 850,-891.569"/>
<ellipse fill="none" stroke="#6f7bac" cx="850" cy="-914.898" rx="4" ry="4"/>
<polygon fill="#6f7bac" stroke="#6f7bac" points="850,-891.21 854.5,-881.209 850,-886.21 850,-881.21 850,-881.21 850,-881.21 850,-886.21 845.5,-881.21 850,-891.21 850,-891.21"/>
</g>
<!-- User&#45;&gt;Rule -->
<g id="edge56" class="edge"><title>User&#45;&gt;Rule</title>
<path fill="none" stroke="#f0e5dc" d="M983.151,-1044.73C1036.85,-994.195 1099.38,-935.333 1156,-882 1157.91,-880.196 1159.85,-878.374 1161.8,-876.537"/>
<ellipse fill="none" stroke="#f0e5dc" cx="980.229" cy="-1047.48" rx="4.00002" ry="4.00002"/>
<polygon fill="#f0e5dc" stroke="#f0e5dc" points="1162.1,-876.252 1172.47,-872.669 1165.74,-872.823 1169.38,-869.394 1169.38,-869.394 1169.38,-869.394 1165.74,-872.823 1166.29,-866.119 1162.1,-876.252 1162.1,-876.252"/>
</g>
<!-- User&#45;&gt;GroupStudy -->
<g id="edge46" class="edge"><title>User&#45;&gt;GroupStudy</title>
<path fill="none" stroke="#1c776d" d="M983.544,-1068.36C1037.7,-1018.79 1094.2,-954.251 1123,-882 1191.4,-710.416 1111.94,-492.947 1057.88,-377.526"/>
<ellipse fill="none" stroke="#1c776d" cx="980.258" cy="-1071.34" rx="4.00002" ry="4.00002"/>
<polygon fill="#1c776d" stroke="#1c776d" points="1057.82,-377.414 1057.61,-366.45 1055.68,-372.895 1053.54,-368.376 1053.54,-368.376 1053.54,-368.376 1055.68,-372.895 1049.48,-370.302 1057.82,-377.414 1057.82,-377.414"/>
</g>
<!-- User&#45;&gt;ReliabilityId -->
<g id="edge40" class="edge"><title>User&#45;&gt;ReliabilityId</title>
<path fill="none" stroke="#2d92b5" d="M716.116,-1080.27C652.411,-1029.94 581.827,-961.325 543,-882 454.691,-701.584 537.018,-629.614 501,-432 499.4,-423.221 497.498,-414.184 495.413,-405.142"/>
<ellipse fill="none" stroke="#2d92b5" cx="719.505" cy="-1082.93" rx="4.00002" ry="4.00002"/>
<polygon fill="#2d92b5" stroke="#2d92b5" points="495.396,-405.07 497.463,-394.301 494.24,-400.205 493.085,-395.341 493.085,-395.341 493.085,-395.341 494.24,-400.205 488.706,-396.381 495.396,-405.07 495.396,-405.07"/>
</g>
<!-- User&#45;&gt;Authentication -->
<g id="edge36" class="edge"><title>User&#45;&gt;Authentication</title>
<path fill="none" stroke="#f829f7" d="M728.461,-911.562C720.433,-894.492 712.764,-878.184 705.746,-863.263"/>
<ellipse fill="none" stroke="#f829f7" cx="730.208" cy="-915.278" rx="4.00002" ry="4.00002"/>
<polygon fill="#f829f7" stroke="#f829f7" points="705.72,-863.206 705.536,-852.242 703.592,-858.682 701.464,-854.157 701.464,-854.157 701.464,-854.157 703.592,-858.682 697.392,-856.072 705.72,-863.206 705.72,-863.206"/>
</g>
<!-- User&#45;&gt;StudyType -->
<g id="edge50" class="edge"><title>User&#45;&gt;StudyType</title>
<path fill="none" stroke="#8b3813" d="M715.983,-1076.77C640.853,-1022.61 546.712,-951.51 468,-882 463.631,-878.142 459.226,-874.123 454.829,-870.007"/>
<ellipse fill="none" stroke="#8b3813" cx="719.486" cy="-1079.29" rx="4.00002" ry="4.00002"/>
<polygon fill="#8b3813" stroke="#8b3813" points="454.701,-869.886 450.545,-859.738 451.074,-866.444 447.447,-863.003 447.447,-863.003 447.447,-863.003 451.074,-866.444 444.35,-866.267 454.701,-869.886 454.701,-869.886"/>
</g>
<!-- User&#45;&gt;ProjectGroup -->
<g id="edge54" class="edge"><title>User&#45;&gt;ProjectGroup</title>
<path fill="none" stroke="#95321f" d="M716.456,-1068.36C662.296,-1018.79 605.802,-954.251 577,-882 544.413,-800.256 531.552,-759.356 577,-684 616.024,-619.296 694.888,-582.182 757.861,-561.896"/>
<ellipse fill="none" stroke="#95321f" cx="719.742" cy="-1071.34" rx="4.00002" ry="4.00002"/>
<polygon fill="#95321f" stroke="#95321f" points="757.883,-561.889 768.77,-563.198 762.655,-560.396 767.426,-558.903 767.426,-558.903 767.426,-558.903 762.655,-560.396 766.083,-554.609 757.883,-561.889 757.883,-561.889"/>
</g>
<!-- User&#45;&gt;Study -->
<g id="edge48" class="edge"><title>User&#45;&gt;Study</title>
<path fill="none" stroke="#c8451e" d="M715.643,-1089.26C642.766,-1038.63 557.339,-966.91 506,-882 459.407,-804.939 488.955,-770.23 463,-684 458.561,-669.251 453.295,-653.873 447.798,-638.891"/>
<ellipse fill="none" stroke="#c8451e" cx="719.362" cy="-1091.83" rx="4.00002" ry="4.00002"/>
<polygon fill="#c8451e" stroke="#c8451e" points="447.647,-638.486 448.375,-627.544 445.902,-633.8 444.158,-629.114 444.158,-629.114 444.158,-629.114 445.902,-633.8 439.941,-630.684 447.647,-638.486 447.647,-638.486"/>
</g>
<!-- User&#45;&gt;Group -->
<g id="edge44" class="edge"><title>User&#45;&gt;Group</title>
<path fill="none" stroke="#f2efac" d="M971.543,-911.554C977.926,-897.981 984.082,-884.891 989.864,-872.597"/>
<ellipse fill="none" stroke="#f2efac" cx="969.792" cy="-915.278" rx="4.00002" ry="4.00002"/>
<polygon fill="#f2efac" stroke="#f2efac" points="989.954,-872.405 998.282,-865.271 992.082,-867.88 994.21,-863.356 994.21,-863.356 994.21,-863.356 992.082,-867.88 990.138,-861.44 989.954,-872.405 989.954,-872.405"/>
</g>
<!-- User&#45;&gt;ExerciseUser -->
<g id="edge38" class="edge"><title>User&#45;&gt;ExerciseUser</title>
<path fill="none" stroke="#6a5f60" d="M985.129,-1134.74C1106.74,-1095.15 1278.6,-1017.91 1361,-882 1412.01,-797.864 1396.72,-506.263 1386.24,-369.221"/>
<ellipse fill="none" stroke="#6a5f60" cx="981" cy="-1136.07" rx="4.00001" ry="4.00001"/>
<polygon fill="#6a5f60" stroke="#6a5f60" points="1386.24,-369.198 1389.95,-358.88 1385.86,-364.213 1385.47,-359.228 1385.47,-359.228 1385.47,-359.228 1385.86,-364.213 1380.98,-359.577 1386.24,-369.198 1386.24,-369.198"/>
</g>
<!-- LaunchedExercise -->
<g id="node39" class="node"><title>LaunchedExercise</title>
<ellipse fill="none" stroke="black" cx="1507" cy="-783" rx="98.9949" ry="18.3848"/>
<text text-anchor="middle" x="1507" y="-779.4" font-family="Times Roman,serif" font-size="14.00">LaunchedExercise</text>
</g>
<!-- User&#45;&gt;LaunchedExercise -->
<g id="edge42" class="edge"><title>User&#45;&gt;LaunchedExercise</title>
<path fill="none" stroke="#e6fe83" d="M984.487,-1109.61C1097.74,-1056.27 1261.92,-972.978 1394,-882 1426.28,-859.765 1459.6,-829.519 1481.62,-808.33"/>
<ellipse fill="none" stroke="#e6fe83" cx="980.722" cy="-1111.38" rx="4.00002" ry="4.00002"/>
<polygon fill="#e6fe83" stroke="#e6fe83" points="1481.74,-808.21 1492.05,-804.468 1485.33,-804.725 1488.91,-801.241 1488.91,-801.241 1488.91,-801.241 1485.33,-804.725 1485.78,-798.013 1481.74,-808.21 1481.74,-808.21"/>
</g>
</g>
</svg>
