<?xml version="1.0" encoding="UTF-8" standalone="no"?>
<!DOCTYPE svg PUBLIC "-//W3C//DTD SVG 1.1//EN"
 "http://www.w3.org/Graphics/SVG/1.1/DTD/svg11.dtd">
<!-- Generated by graphviz version 2.26.3 (20100126.1600)
 -->
<!-- Title: models_diagram Pages: 1 -->
<svg width="1159pt" height="650pt"
 viewBox="0.00 0.00 1159.00 650.00" xmlns="http://www.w3.org/2000/svg" xmlns:xlink="http://www.w3.org/1999/xlink">
<g id="graph1" class="graph" transform="scale(1 1) rotate(0) translate(4 646)">
<title>models_diagram</title>
<polygon fill="white" stroke="white" points="-4,5 -4,-646 1156,-646 1156,5 -4,5"/>
<!-- _diagram_info -->
<g id="node1" class="node"><title>_diagram_info</title>
<text text-anchor="start" x="141" y="-625.8" font-family="Times Roman,serif" font-size="13.00">Models diagram</text>
<text text-anchor="start" x="141" y="-608.8" font-family="Times Roman,serif" font-size="13.00">Date: Sep 28 2012 &#45; 11:58</text>
<text text-anchor="start" x="141" y="-591.8" font-family="Times Roman,serif" font-size="13.00">Migration version: 20120821153201</text>
<text text-anchor="start" x="141" y="-574.8" font-family="Times Roman,serif" font-size="13.00">Generated by RailRoady 1.1.0</text>
<text text-anchor="start" x="141" y="-557.8" font-family="Times Roman,serif" font-size="13.00">http://railroady.prestonlee.com</text>
</g>
<!-- Assessment -->
<g id="node2" class="node"><title>Assessment</title>
<ellipse fill="none" stroke="black" cx="949" cy="-95" rx="68.7979" ry="18.3848"/>
<text text-anchor="middle" x="949" y="-91.4" font-family="Times Roman,serif" font-size="14.00">Assessment</text>
</g>
<!-- AssessmentResult -->
<g id="node5" class="node"><title>AssessmentResult</title>
<ellipse fill="none" stroke="black" cx="949" cy="-19" rx="98.9949" ry="18.3848"/>
<text text-anchor="middle" x="949" y="-15.4" font-family="Times Roman,serif" font-size="14.00">AssessmentResult</text>
</g>
<!-- Assessment&#45;&gt;AssessmentResult -->
<g id="edge2" class="edge"><title>Assessment&#45;&gt;AssessmentResult</title>
<path fill="none" stroke="#4ccf31" d="M949,-68.0731C949,-61.4485 949,-54.332 949,-47.6302"/>
<ellipse fill="none" stroke="#4ccf31" cx="949" cy="-72.2135" rx="4" ry="4"/>
<polygon fill="#4ccf31" stroke="#4ccf31" points="949,-47.5704 953.5,-37.5704 949,-42.5704 949,-37.5704 949,-37.5704 949,-37.5704 949,-42.5704 944.5,-37.5705 949,-47.5704 949,-47.5704"/>
</g>
<!-- Project -->
<g id="node3" class="node"><title>Project</title>
<ellipse fill="none" stroke="black" cx="251" cy="-323" rx="45.9619" ry="18.3848"/>
<text text-anchor="middle" x="251" y="-319.4" font-family="Times Roman,serif" font-size="14.00">Project</text>
</g>
<!-- ProjectGroup -->
<g id="node13" class="node"><title>ProjectGroup</title>
<ellipse fill="none" stroke="black" cx="286" cy="-171" rx="75.1594" ry="18.3848"/>
<text text-anchor="middle" x="286" y="-167.4" font-family="Times Roman,serif" font-size="14.00">ProjectGroup</text>
</g>
<!-- Project&#45;&gt;ProjectGroup -->
<g id="edge6" class="edge"><title>Project&#45;&gt;ProjectGroup</title>
<path fill="none" stroke="#58321d" d="M258.784,-296.878C261.543,-287.219 264.564,-276.151 267,-266 272.307,-243.885 277.309,-218.629 280.847,-199.719"/>
<ellipse fill="none" stroke="#58321d" cx="257.658" cy="-300.768" rx="4.00001" ry="4.00001"/>
<polygon fill="#58321d" stroke="#58321d" points="280.888,-199.493 287.128,-190.476 281.796,-194.576 282.703,-189.659 282.703,-189.659 282.703,-189.659 281.796,-194.576 278.278,-188.843 280.888,-199.493 280.888,-199.493"/>
</g>
<!-- Group -->
<g id="node16" class="node"><title>Group</title>
<ellipse fill="none" stroke="black" cx="217" cy="-247" rx="41.2167" ry="18.3848"/>
<text text-anchor="middle" x="217" y="-243.4" font-family="Times Roman,serif" font-size="14.00">Group</text>
</g>
<!-- Project&#45;&gt;Group -->
<g id="edge4" class="edge"><title>Project&#45;&gt;Group</title>
<path fill="none" stroke="#c1c0b4" d="M238.651,-295.396C235.632,-288.647 232.401,-281.425 229.38,-274.673"/>
<polygon fill="#c1c0b4" stroke="#c1c0b4" points="238.686,-295.474 238.662,-306.44 240.728,-300.038 242.77,-304.603 242.77,-304.603 242.77,-304.603 240.728,-300.038 246.877,-302.765 238.686,-295.474 238.686,-295.474"/>
<polygon fill="#c1c0b4" stroke="#c1c0b4" points="229.238,-274.356 229.262,-263.39 227.197,-269.792 225.155,-265.228 225.155,-265.228 225.155,-265.228 227.197,-269.792 221.047,-267.066 229.238,-274.356 229.238,-274.356"/>
</g>
<!-- Rule -->
<g id="node4" class="node"><title>Rule</title>
<ellipse fill="none" stroke="black" cx="190" cy="-399" rx="33.234" ry="18.3848"/>
<text text-anchor="middle" x="190" y="-395.4" font-family="Times Roman,serif" font-size="14.00">Rule</text>
</g>
<!-- Exercise -->
<g id="node14" class="node"><title>Exercise</title>
<ellipse fill="none" stroke="black" cx="452" cy="-595" rx="51.1176" ry="18.3848"/>
<text text-anchor="middle" x="452" y="-591.4" font-family="Times Roman,serif" font-size="14.00">Exercise</text>
</g>
<!-- Rule&#45;&gt;Exercise -->
<g id="edge8" class="edge"><title>Rule&#45;&gt;Exercise</title>
<path fill="none" stroke="#7ef7a6" d="M211.963,-421.133C217.963,-426.829 224.583,-432.812 231,-438 298.392,-492.485 322.074,-496.808 392,-548 402.26,-555.511 413.271,-564.006 423.024,-571.687"/>
<ellipse fill="none" stroke="#7ef7a6" cx="209.08" cy="-418.349" rx="4.00002" ry="4.00002"/>
<polygon fill="#7ef7a6" stroke="#7ef7a6" points="423.039,-571.698 428.082,-581.436 426.958,-574.804 430.877,-577.909 430.877,-577.909 430.877,-577.909 426.958,-574.804 433.671,-574.382 423.039,-571.698 423.039,-571.698"/>
</g>
<!-- ExerciseGroup -->
<g id="node6" class="node"><title>ExerciseGroup</title>
<ellipse fill="none" stroke="black" cx="82" cy="-171" rx="82.0244" ry="18.3848"/>
<text text-anchor="middle" x="82" y="-167.4" font-family="Times Roman,serif" font-size="14.00">ExerciseGroup</text>
</g>
<!-- GroupStudy -->
<g id="node7" class="node"><title>GroupStudy</title>
<ellipse fill="none" stroke="black" cx="592" cy="-171" rx="70.2092" ry="18.3848"/>
<text text-anchor="middle" x="592" y="-167.4" font-family="Times Roman,serif" font-size="14.00">GroupStudy</text>
</g>
<!-- ReliabilityId -->
<g id="node8" class="node"><title>ReliabilityId</title>
<ellipse fill="none" stroke="black" cx="949" cy="-247" rx="67.8823" ry="18.3848"/>
<text text-anchor="middle" x="949" y="-243.4" font-family="Times Roman,serif" font-size="14.00">ReliabilityId</text>
</g>
<!-- Result -->
<g id="node10" class="node"><title>Result</title>
<ellipse fill="none" stroke="black" cx="949" cy="-171" rx="41.2167" ry="18.3848"/>
<text text-anchor="middle" x="949" y="-167.4" font-family="Times Roman,serif" font-size="14.00">Result</text>
</g>
<!-- ReliabilityId&#45;&gt;Result -->
<g id="edge10" class="edge"><title>ReliabilityId&#45;&gt;Result</title>
<path fill="none" stroke="#b6396e" d="M949,-220.073C949,-212.818 949,-204.972 949,-197.727"/>
<ellipse fill="none" stroke="#b6396e" cx="949" cy="-224.213" rx="4" ry="4"/>
<ellipse fill="#b6396e" stroke="#b6396e" cx="949" cy="-193.57" rx="4" ry="4"/>
</g>
<!-- Extensions::IndexMethods -->
<g id="node9" class="node"><title>Extensions::IndexMethods</title>
<polygon fill="none" stroke="black" stroke-dasharray="1,5" points="717,-613 521,-613 521,-577 717,-577 717,-613"/>
<text text-anchor="middle" x="619" y="-591.4" font-family="Times Roman,serif" font-size="14.00">Extensions::IndexMethods</text>
</g>
<!-- Result&#45;&gt;Assessment -->
<g id="edge12" class="edge"><title>Result&#45;&gt;Assessment</title>
<path fill="none" stroke="#596acf" d="M949,-144.073C949,-136.818 949,-128.972 949,-121.727"/>
<ellipse fill="none" stroke="#596acf" cx="949" cy="-148.213" rx="4" ry="4"/>
<ellipse fill="#596acf" stroke="#596acf" cx="949" cy="-117.57" rx="4" ry="4"/>
</g>
<!-- Authentication -->
<g id="node11" class="node"><title>Authentication</title>
<ellipse fill="none" stroke="black" cx="837" cy="-399" rx="84.1457" ry="18.3848"/>
<text text-anchor="middle" x="837" y="-395.4" font-family="Times Roman,serif" font-size="14.00">Authentication</text>
</g>
<!-- StudyType -->
<g id="node12" class="node"><title>StudyType</title>
<ellipse fill="none" stroke="black" cx="634" cy="-399" rx="62.9325" ry="18.3848"/>
<text text-anchor="middle" x="634" y="-395.4" font-family="Times Roman,serif" font-size="14.00">StudyType</text>
</g>
<!-- Study -->
<g id="node15" class="node"><title>Study</title>
<ellipse fill="none" stroke="black" cx="592" cy="-323" rx="39.8075" ry="18.3848"/>
<text text-anchor="middle" x="592" y="-319.4" font-family="Times Roman,serif" font-size="14.00">Study</text>
</g>
<!-- StudyType&#45;&gt;Study -->
<g id="edge14" class="edge"><title>StudyType&#45;&gt;Study</title>
<path fill="none" stroke="#7854ae" d="M619.907,-373.499C615.714,-365.912 611.108,-357.576 606.867,-349.903"/>
<ellipse fill="none" stroke="#7854ae" cx="621.898" cy="-377.102" rx="4.00002" ry="4.00002"/>
<polygon fill="#7854ae" stroke="#7854ae" points="606.765,-349.718 605.867,-338.789 604.347,-345.342 601.928,-340.966 601.928,-340.966 601.928,-340.966 604.347,-345.342 597.99,-343.142 606.765,-349.718 606.765,-349.718"/>
</g>
<!-- Exercise&#45;&gt;ExerciseGroup -->
<g id="edge22" class="edge"><title>Exercise&#45;&gt;ExerciseGroup</title>
<path fill="none" stroke="#f0dfd3" d="M429.267,-571.851C418.83,-562.731 405.729,-553.207 392,-548 330.176,-524.552 153.354,-561.094 95,-530 67.8562,-515.537 53,-505.757 53,-475 53,-475 53,-475 53,-247 53,-230.247 59.2269,-212.702 65.9098,-198.695"/>
<ellipse fill="none" stroke="#f0dfd3" cx="432.445" cy="-574.743" rx="4.00002" ry="4.00002"/>
<polygon fill="#f0dfd3" stroke="#f0dfd3" points="65.9961,-198.526 74.5474,-191.661 68.2673,-194.071 70.5384,-189.617 70.5384,-189.617 70.5384,-189.617 68.2673,-194.071 66.5294,-187.573 65.9961,-198.526 65.9961,-198.526"/>
</g>
<!-- Exercise&#45;&gt;ReliabilityId -->
<g id="edge24" class="edge"><title>Exercise&#45;&gt;ReliabilityId</title>
<path fill="none" stroke="#73d812" d="M475.053,-571.868C485.466,-562.848 498.462,-553.395 512,-548 644.769,-495.089 1151,-617.924 1151,-475 1151,-475 1151,-475 1151,-323 1151,-293.601 1075.1,-271.688 1016.35,-259.129"/>
<ellipse fill="none" stroke="#73d812" cx="471.894" cy="-574.712" rx="4.00002" ry="4.00002"/>
<polygon fill="#73d812" stroke="#73d812" points="1016.13,-259.084 1007.26,-252.639 1011.24,-258.064 1006.34,-257.044 1006.34,-257.044 1006.34,-257.044 1011.24,-258.064 1005.43,-261.449 1016.13,-259.084 1016.13,-259.084"/>
</g>
<!-- Exercise&#45;&gt;Group -->
<g id="edge20" class="edge"><title>Exercise&#45;&gt;Group</title>
<path fill="none" stroke="#a304db" d="M426.342,-570.968C416.274,-562.64 404.215,-553.919 392,-548 268.121,-487.974 91,-612.656 91,-475 91,-475 91,-475 91,-323 91,-285.172 133.157,-265.677 168.702,-255.964"/>
<polygon fill="#a304db" stroke="#a304db" points="426.365,-570.989 431.022,-580.917 430.159,-574.245 433.953,-577.502 433.953,-577.502 433.953,-577.502 430.159,-574.245 436.884,-574.087 426.365,-570.989 426.365,-570.989"/>
<polygon fill="#a304db" stroke="#a304db" points="168.818,-255.934 179.617,-257.838 173.665,-254.705 178.511,-253.476 178.511,-253.476 178.511,-253.476 173.665,-254.705 177.405,-249.114 168.818,-255.934 168.818,-255.934"/>
</g>
<!-- ExerciseUser -->
<g id="node17" class="node"><title>ExerciseUser</title>
<ellipse fill="none" stroke="black" cx="1050" cy="-399" rx="73.0388" ry="18.3848"/>
<text text-anchor="middle" x="1050" y="-395.4" font-family="Times Roman,serif" font-size="14.00">ExerciseUser</text>
</g>
<!-- Exercise&#45;&gt;ExerciseUser -->
<g id="edge18" class="edge"><title>Exercise&#45;&gt;ExerciseUser</title>
<path fill="none" stroke="#8db60c" d="M475.398,-571.932C485.789,-563.017 498.675,-553.626 512,-548 566.953,-524.798 586.559,-541.947 645,-530 795.853,-499.161 836.33,-495.903 979,-438 990.504,-433.331 1002.52,-427.244 1013.32,-421.273"/>
<ellipse fill="none" stroke="#8db60c" cx="472.257" cy="-574.725" rx="4.00002" ry="4.00002"/>
<polygon fill="#8db60c" stroke="#8db60c" points="1013.37,-421.245 1024.29,-420.234 1017.72,-418.781 1022.07,-416.318 1022.07,-416.318 1022.07,-416.318 1017.72,-418.781 1019.86,-412.402 1013.37,-421.245 1013.37,-421.245"/>
</g>
<!-- User -->
<g id="node18" class="node"><title>User</title>
<ellipse fill="none" stroke="black" cx="524" cy="-475" rx="33.9411" ry="18.3848"/>
<text text-anchor="middle" x="524" y="-471.4" font-family="Times Roman,serif" font-size="14.00">User</text>
</g>
<!-- Exercise&#45;&gt;User -->
<g id="edge16" class="edge"><title>Exercise&#45;&gt;User</title>
<path fill="none" stroke="#aa31bf" d="M445.402,-566.401C443.083,-549.388 443.125,-528.063 453,-512 459.95,-500.695 471.592,-492.676 483.459,-487.064"/>
<polygon fill="#aa31bf" stroke="#aa31bf" points="445.417,-566.49 442.648,-577.1 446.251,-571.42 447.085,-576.35 447.085,-576.35 447.085,-576.35 446.251,-571.42 451.522,-575.6 445.417,-566.49 445.417,-566.49"/>
<polygon fill="#aa31bf" stroke="#aa31bf" points="483.726,-486.951 494.689,-487.209 488.333,-485.007 492.939,-483.063 492.939,-483.063 492.939,-483.063 488.333,-485.007 491.19,-478.917 483.726,-486.951 483.726,-486.951"/>
<text text-anchor="middle" x="477.5" y="-517.4" font-family="Times Roman,serif" font-size="14.00">scorers</text>
</g>
<!-- Study&#45;&gt;GroupStudy -->
<g id="edge30" class="edge"><title>Study&#45;&gt;GroupStudy</title>
<path fill="none" stroke="#6d011d" d="M592,-296.278C592,-269.318 592,-227.816 592,-200.054"/>
<ellipse fill="none" stroke="#6d011d" cx="592" cy="-300.362" rx="4" ry="4"/>
<polygon fill="#6d011d" stroke="#6d011d" points="592,-199.791 596.5,-189.791 592,-194.791 592,-189.791 592,-189.791 592,-189.791 592,-194.791 587.5,-189.791 592,-199.791 592,-199.791"/>
</g>
<!-- Study&#45;&gt;ReliabilityId -->
<g id="edge26" class="edge"><title>Study&#45;&gt;ReliabilityId</title>
<path fill="none" stroke="#7dd999" d="M636.63,-313.499C699.319,-300.153 813.783,-275.786 885.378,-260.544"/>
<ellipse fill="none" stroke="#7dd999" cx="632.44" cy="-314.391" rx="4.00001" ry="4.00001"/>
<polygon fill="#7dd999" stroke="#7dd999" points="885.405,-260.538 896.123,-262.858 890.296,-259.497 895.186,-258.456 895.186,-258.456 895.186,-258.456 890.296,-259.497 894.249,-254.055 885.405,-260.538 885.405,-260.538"/>
</g>
<!-- Study&#45;&gt;Group -->
<g id="edge28" class="edge"><title>Study&#45;&gt;Group</title>
<path fill="none" stroke="#fb5f2d" d="M545.233,-313.522C473.527,-298.989 337.144,-271.349 264.814,-256.69"/>
<polygon fill="#fb5f2d" stroke="#fb5f2d" points="545.56,-313.588 554.467,-319.985 550.46,-314.581 555.361,-315.574 555.361,-315.574 555.361,-315.574 550.46,-314.581 556.255,-311.164 545.56,-313.588 545.56,-313.588"/>
<polygon fill="#fb5f2d" stroke="#fb5f2d" points="264.423,-256.611 255.516,-250.215 259.523,-255.618 254.623,-254.625 254.623,-254.625 254.623,-254.625 259.523,-255.618 253.729,-259.035 264.423,-256.611 264.423,-256.611"/>
</g>
<!-- Group&#45;&gt;ExerciseGroup -->
<g id="edge36" class="edge"><title>Group&#45;&gt;ExerciseGroup</title>
<path fill="none" stroke="#f968cc" d="M184.192,-228.53C165.345,-217.92 141.543,-204.52 121.653,-193.323"/>
<ellipse fill="none" stroke="#f968cc" cx="187.804" cy="-230.564" rx="4.00002" ry="4.00002"/>
<polygon fill="#f968cc" stroke="#f968cc" points="121.535,-193.257 115.029,-184.43 117.178,-190.804 112.821,-188.351 112.821,-188.351 112.821,-188.351 117.178,-190.804 110.613,-192.272 121.535,-193.257 121.535,-193.257"/>
</g>
<!-- Group&#45;&gt;GroupStudy -->
<g id="edge34" class="edge"><title>Group&#45;&gt;GroupStudy</title>
<path fill="none" stroke="#34e17e" d="M262.763,-237.725C328.696,-224.363 450.769,-199.623 526.318,-184.312"/>
<ellipse fill="none" stroke="#34e17e" cx="258.594" cy="-238.57" rx="4.00001" ry="4.00001"/>
<polygon fill="#34e17e" stroke="#34e17e" points="526.402,-184.295 537.097,-186.719 531.302,-183.301 536.203,-182.308 536.203,-182.308 536.203,-182.308 531.302,-183.301 535.309,-177.898 526.402,-184.295 526.402,-184.295"/>
</g>
<!-- Group&#45;&gt;ProjectGroup -->
<g id="edge32" class="edge"><title>Group&#45;&gt;ProjectGroup</title>
<path fill="none" stroke="#ea4c71" d="M238.043,-223.822C245.839,-215.235 254.722,-205.451 262.707,-196.656"/>
<ellipse fill="none" stroke="#ea4c71" cx="235.346" cy="-226.793" rx="4.00002" ry="4.00002"/>
<polygon fill="#ea4c71" stroke="#ea4c71" points="262.721,-196.641 272.774,-192.262 266.082,-192.939 269.443,-189.237 269.443,-189.237 269.443,-189.237 266.082,-192.939 266.111,-186.212 262.721,-196.641 262.721,-196.641"/>
</g>
<!-- User&#45;&gt;Project -->
<g id="edge56" class="edge"><title>User&#45;&gt;Project</title>
<path fill="none" stroke="#df6d8d" d="M481.659,-471.04C417.238,-464.131 299.016,-447.701 270,-418 253.108,-400.709 249.194,-372.891 249.01,-351.815"/>
<ellipse fill="none" stroke="#df6d8d" cx="486.019" cy="-471.496" rx="4" ry="4"/>
<polygon fill="#df6d8d" stroke="#df6d8d" points="249.011,-351.792 253.691,-341.876 249.101,-346.793 249.192,-341.794 249.192,-341.794 249.192,-341.794 249.101,-346.793 244.693,-341.712 249.011,-351.792 249.011,-351.792"/>
</g>
<!-- User&#45;&gt;Rule -->
<g id="edge60" class="edge"><title>User&#45;&gt;Rule</title>
<path fill="none" stroke="#021c6f" d="M481.97,-472.463C413.218,-467.834 280.05,-456.733 237,-438 228.475,-434.29 220.275,-428.546 213.179,-422.597"/>
<ellipse fill="none" stroke="#021c6f" cx="486.033" cy="-472.731" rx="4" ry="4"/>
<polygon fill="#021c6f" stroke="#021c6f" points="212.849,-422.301 208.405,-412.276 209.125,-418.964 205.401,-415.628 205.401,-415.628 205.401,-415.628 209.125,-418.964 202.398,-418.979 212.849,-422.301 212.849,-422.301"/>
</g>
<!-- User&#45;&gt;GroupStudy -->
<g id="edge50" class="edge"><title>User&#45;&gt;GroupStudy</title>
<path fill="none" stroke="#c4de8b" d="M564.731,-468.12C623.472,-457.025 725,-432.939 725,-399 725,-399 725,-399 725,-247 725,-213.597 692.984,-194.677 660.369,-184.068"/>
<ellipse fill="none" stroke="#c4de8b" cx="560.675" cy="-468.871" rx="4.00001" ry="4.00001"/>
<polygon fill="#c4de8b" stroke="#c4de8b" points="660.298,-184.047 652.02,-176.855 655.511,-182.605 650.723,-181.164 650.723,-181.164 650.723,-181.164 655.511,-182.605 649.425,-185.473 660.298,-184.047 660.298,-184.047"/>
</g>
<!-- User&#45;&gt;ReliabilityId -->
<g id="edge44" class="edge"><title>User&#45;&gt;ReliabilityId</title>
<path fill="none" stroke="#226103" d="M566,-471.996C664.668,-464.536 904.848,-443.887 930,-418 966.625,-380.304 961.879,-313.642 955.331,-275.642"/>
<ellipse fill="none" stroke="#226103" cx="561.731" cy="-472.315" rx="4" ry="4"/>
<polygon fill="#226103" stroke="#226103" points="955.315,-275.56 957.891,-264.901 954.392,-270.646 953.469,-265.732 953.469,-265.732 953.469,-265.732 954.392,-270.646 949.046,-266.563 955.315,-275.56 955.315,-275.56"/>
</g>
<!-- User&#45;&gt;Authentication -->
<g id="edge38" class="edge"><title>User&#45;&gt;Authentication</title>
<path fill="none" stroke="#3123bb" d="M565.742,-470.433C609.483,-465.042 679.921,-454.643 739,-438 756.386,-433.102 774.924,-426.189 791.144,-419.54"/>
<ellipse fill="none" stroke="#3123bb" cx="561.599" cy="-470.933" rx="4.00001" ry="4.00001"/>
<polygon fill="#3123bb" stroke="#3123bb" points="791.173,-419.528 802.135,-419.825 795.787,-417.6 800.401,-415.673 800.401,-415.673 800.401,-415.673 795.787,-417.6 798.666,-411.521 791.173,-419.528 791.173,-419.528"/>
</g>
<!-- User&#45;&gt;StudyType -->
<g id="edge54" class="edge"><title>User&#45;&gt;StudyType</title>
<path fill="none" stroke="#1dd196" d="M551.927,-455.705C566.762,-445.455 585.099,-432.786 600.675,-422.024"/>
<ellipse fill="none" stroke="#1dd196" cx="548.5" cy="-458.073" rx="4.00002" ry="4.00002"/>
<polygon fill="#1dd196" stroke="#1dd196" points="600.778,-421.954 611.563,-419.972 604.891,-419.112 609.005,-416.269 609.005,-416.269 609.005,-416.269 604.891,-419.112 606.447,-412.567 600.778,-421.954 600.778,-421.954"/>
</g>
<!-- User&#45;&gt;ProjectGroup -->
<g id="edge58" class="edge"><title>User&#45;&gt;ProjectGroup</title>
<path fill="none" stroke="#193d7a" d="M514.246,-449.269C509.582,-434.732 505,-416.098 505,-399 505,-399 505,-399 505,-247 505,-215.675 424.019,-194.344 360.545,-182.436"/>
<ellipse fill="none" stroke="#193d7a" cx="515.538" cy="-453.098" rx="4.00001" ry="4.00001"/>
<polygon fill="#193d7a" stroke="#193d7a" points="360.36,-182.402 351.331,-176.178 355.441,-181.504 350.523,-180.605 350.523,-180.605 350.523,-180.605 355.441,-181.504 349.714,-185.032 360.36,-182.402 360.36,-182.402"/>
</g>
<!-- User&#45;&gt;Exercise -->
<g id="edge40" class="edge"><title>User&#45;&gt;Exercise</title>
<path fill="none" stroke="#47abd5" d="M514.521,-502.982C511.066,-511.862 506.811,-521.561 502,-530 494.17,-543.735 483.725,-557.785 474.407,-569.292"/>
<polygon fill="#47abd5" stroke="#47abd5" points="514.592,-502.791 522.289,-494.979 516.331,-498.103 518.07,-493.414 518.07,-493.414 518.07,-493.414 516.331,-498.103 513.85,-491.85 514.592,-502.791 514.592,-502.791"/>
<polygon fill="#47abd5" stroke="#47abd5" points="474.253,-569.478 464.409,-574.31 471.064,-573.329 467.874,-577.18 467.874,-577.18 467.874,-577.18 471.064,-573.329 471.34,-580.05 474.253,-569.478 474.253,-569.478"/>
<text text-anchor="middle" x="576" y="-517.4" font-family="Times Roman,serif" font-size="14.00">assigned_exercises</text>
</g>
<!-- User&#45;&gt;Study -->
<g id="edge52" class="edge"><title>User&#45;&gt;Study</title>
<path fill="none" stroke="#97859d" d="M533.547,-449.042C540.835,-429.77 551.399,-402.963 562,-380 566.605,-370.025 572.094,-359.31 577.111,-349.894"/>
<ellipse fill="none" stroke="#97859d" cx="532.135" cy="-452.804" rx="4.00001" ry="4.00001"/>
<polygon fill="#97859d" stroke="#97859d" points="577.169,-349.785 585.879,-343.122 579.544,-345.385 581.919,-340.985 581.919,-340.985 581.919,-340.985 579.544,-345.385 577.959,-338.848 577.169,-349.785 577.169,-349.785"/>
</g>
<!-- User&#45;&gt;Group -->
<g id="edge48" class="edge"><title>User&#45;&gt;Group</title>
<path fill="none" stroke="#3ec55f" d="M482.144,-471.839C388.473,-464.325 168.522,-444.055 148,-418 112.365,-372.759 160.885,-306.66 192.883,-271.358"/>
<ellipse fill="none" stroke="#3ec55f" cx="486.284" cy="-472.168" rx="4" ry="4"/>
<polygon fill="#3ec55f" stroke="#3ec55f" points="193.008,-271.223 203.112,-266.962 196.412,-267.561 199.816,-263.899 199.816,-263.899 199.816,-263.899 196.412,-267.561 196.52,-260.835 193.008,-271.223 193.008,-271.223"/>
</g>
<!-- User&#45;&gt;ExerciseUser -->
<g id="edge42" class="edge"><title>User&#45;&gt;ExerciseUser</title>
<path fill="none" stroke="#47fa1a" d="M566.212,-473.253C661.087,-469.033 888.688,-457.193 963,-438 978.907,-433.891 995.558,-427.106 1009.98,-420.337"/>
<ellipse fill="none" stroke="#47fa1a" cx="561.988" cy="-473.438" rx="4" ry="4"/>
<polygon fill="#47fa1a" stroke="#47fa1a" points="1010.11,-420.276 1021.07,-419.97 1014.61,-418.098 1019.11,-415.92 1019.11,-415.92 1019.11,-415.92 1014.61,-418.098 1017.15,-411.869 1010.11,-420.276 1010.11,-420.276"/>
</g>
<!-- LaunchedExercise -->
<g id="node42" class="node"><title>LaunchedExercise</title>
<ellipse fill="none" stroke="black" cx="378" cy="-399" rx="98.9949" ry="18.3848"/>
<text text-anchor="middle" x="378" y="-395.4" font-family="Times Roman,serif" font-size="14.00">LaunchedExercise</text>
</g>
<!-- User&#45;&gt;LaunchedExercise -->
<g id="edge46" class="edge"><title>User&#45;&gt;LaunchedExercise</title>
<path fill="none" stroke="#75d7d8" d="M491.836,-458.257C470.946,-447.383 443.478,-433.085 420.758,-421.258"/>
<ellipse fill="none" stroke="#75d7d8" cx="495.685" cy="-460.261" rx="4.00002" ry="4.00002"/>
<polygon fill="#75d7d8" stroke="#75d7d8" points="420.537,-421.143 413.745,-412.534 416.102,-418.834 411.667,-416.525 411.667,-416.525 411.667,-416.525 416.102,-418.834 409.589,-420.517 420.537,-421.143 420.537,-421.143"/>
</g>
</g>
</svg>
